<?xml version="1.0" encoding="UTF-8"?>
<svg id="Layer_2" data-name="Layer 2" xmlns="http://www.w3.org/2000/svg" xmlns:xlink="http://www.w3.org/1999/xlink" viewBox="0 0 1920 1080">
  <defs>
    <radialGradient id="radial-gradient" cx="639.77" cy="810.63" fx="639.77" fy="810.63" r="73.12" gradientUnits="userSpaceOnUse">
      <stop offset="0" stop-color="#feffe9"/>
      <stop offset=".31" stop-color="#fff1aa"/>
      <stop offset="1" stop-color="#000b2a"/>
    </radialGradient>
  </defs>
  <g id="_body" data-name="#body">
    <rect width="1920" height="1080" fill="none"/>
    <path d="M931.91,592.7c-13.83,8.68-24.92,21.98-33.89,35.48s-16.24,29.6-18.63,46.25c-2.86,19.92,1.27,39.91,10.51,57.69,5.2,9.99,11.86,17.18,20.11,24.78,10.73,9.89,24.46,21.39,39.81,21.73,2.01.05,6.22-2.91,2.33-3-13.27-.3-25.73-11.02-35.09-19.41-6.88-6.17-13.98-12.67-18.65-20.71-9.75-16.8-15.35-36-13.95-55.51,1.16-16.25,6.84-31.91,15.12-45.86,8.9-14.99,20.93-30.65,35.83-40,3.3-2.07-1.81-2.5-3.52-1.43h0Z" fill="#fff"/>
    <path d="M933.4,595.51c3.29,0,4.47-4.19.53-4.19-3.29,0-4.47,4.19-.53,4.19h0Z" fill="#fff"/>
    <path d="M960.73,868.69c-36.58,15.62-79.17,4.73-109.36-19.18-23.63-18.72-42.86-43.71-54.83-71.41-10.26-23.74-13.32-50.94-12.45-76.57,1.06-31.13,8.8-61.82,21.3-90.28,6.27-14.28,13.56-28.66,22.8-41.29,19.79-27.04,46.05-51.87,75.1-68.7,40.45-23.43,87.87-28.31,131.27-10.28,10.36,4.3,20.4,9.71,29.43,16.39,4.26,3.15,8.67,6.1,12.84,9.37,12.92,10.14,23.91,22.64,31.99,36.95,13.68,24.22,18.12,52.53,16.49,80.04-.66,11.17-2.28,22.27-4.68,33.19-4.14,18.83-12.76,35.2-20.53,52.66-14.05,31.55-21.48,65.98-25.03,100.22-2.04,19.7-.77,40.03-4.45,59.51-2.16,11.46-6.19,24.45-15.84,31.88-6.64,5.11-14.95,5.98-23.02,4.67-33.64-5.45-57.15-36.46-68.96-66.2-19.26-48.51-7.97-105.58,24.02-146.2,15.63-19.85,32.36-43.24,34.29-69.34,1.31-17.6-6.47-33.54-21.33-43.08-11.45-7.35-25.02-10.22-38.52-9.06-3.24.28-4.48,4.56-.52,4.22,22.07-1.88,46.68,9.61,53.03,32.22,8.18,29.1-13.55,60.46-30.55,81.79-28.66,35.94-42.93,85.15-32.63,130.42,8.11,35.66,30.37,72.15,65.79,85.74,16.52,6.34,35.97,6.56,48.07-8.24,13.93-17.04,13.88-41.01,14.59-61.9,1.02-29.71,5.28-59.55,13.19-88.21,2.68-9.72,5.84-19.3,9.56-28.67,3.94-9.92,8.9-19.31,13.31-29.01,6.45-14.22,10.81-28.98,13.44-44.34,4.38-25.64,4.39-52.56-2.96-77.67-11.08-37.84-40.2-67.1-74.57-85.11-37.49-19.65-81.36-23.19-121.33-8.86-32.06,11.5-59.72,32.58-83.12,56.98-13.66,14.24-25.56,28.83-35.15,45.98-30.3,54.2-43.87,121.89-24.58,182.14,6.17,19.28,17.36,37.54,29.9,53.26,24.12,30.23,57.48,54.06,96.98,57.05,16.71,1.27,34.1-1.09,49.58-7.7,3.65-1.56.42-4.67-2.56-3.4h0Z" fill="#fff"/>
    <path d="M1090.27,764.25c12.4-9.26,23.66-20.37,34.21-31.64,23.39-25,43.49-53.53,56.92-85.12,16.58-39,21.61-82.06,11.73-123.48-2.94-12.31-7.07-24.33-12.18-35.91-1.36-3.08-2.83-6.06-4.01-9.2-2.65-7.04-6.04-13.82-9.79-20.33-14.53-25.23-35.8-46.76-62.04-59.71-40.57-20.04-90.74-18.88-132.3-2.48-25.69,10.14-48.88,25.96-68.85,44.94-11.15,10.6-20.73,22.56-31.53,33.47-9.83,9.93-20.7,18.84-32.47,26.38-22.48,14.4-48.11,23.76-74.77,26.01-16.02,1.35-35.46,1.1-49.67-4.7-24.9-10.16-48.54-28.85-58.51-54.44-8.2-21.07-5.95-44.94,2.83-65.46,10.89-25.43,31.68-44.89,55.91-57.62,14.14-7.43,29.44-11.96,45.39-13.03l-.38-1.41c-10.35,5.1-20.22,11.37-29.61,18.05-16.78,11.94-33.65,26.65-42.74,45.52-10.43,21.64-4.54,45.55,13.58,61.24,11.88,10.29,27.59,15.49,43.22,15.43,11.16-.04,22.57-2.67,33.26-5.74,26.38-7.58,49.81-22.12,68.78-41.93,12.6-13.16,21.85-28.66,33.28-42.73,9.99-12.3,21.45-23.41,34.12-32.94,39.87-29.97,89.81-41.39,139.03-40.07,17.04.46,34.3,1.83,50.5,5.04,29.19,5.79,56.79,19.48,79.97,38.01,41.74,33.36,67.7,81.96,81.89,132.77,3.47,12.43,5.61,23.58,6.48,36.3,1.31,19.09,1.28,38.29.06,57.39-3.71,58.11-18.75,117.12-52.1,165.56-10.2,14.81-22.23,28.5-34.8,41.34-19.84,20.27-41.71,39.12-66.17,53.6-13.38,7.92-27.73,14.59-42.99,17.88-2.21.48-5.18,2.86-1.12,1.99,29.15-6.28,55.27-22.27,78.45-40.53,18.13-14.28,34.98-30.35,50.28-47.64,15.31-17.31,28.68-35.95,39.21-56.57,13.65-26.74,22.79-55.64,28.45-85.07,7.58-39.39,9.71-80.47,5.59-120.42-1.99-19.36-8.96-38.73-15.96-56.75-9.85-25.36-23.11-49.52-40.39-70.6-23.56-28.74-54.46-51.24-89.71-63.32-14.16-4.86-29.11-7.23-43.14-8.9-37.94-4.52-76.85-2.99-113.61,8.04-25.52,7.66-49.62,19.77-70.38,36.53-11.97,9.66-22.73,20.78-32.17,32.92-11.7,15.06-21.62,30.91-35.53,44.19-19.82,18.93-43.9,31.81-70.75,37.28-15.85,3.23-31.63,2.66-46.28-4.88-13.28-6.83-24.2-18.74-28.71-33.1-6.75-21.47,4.7-42.21,19.08-57.6,13.08-13.99,28.97-25.35,45.5-34.9,2.85-1.64,6.3-3.57,8.72-4.76,1.6-.79,1.4-1.53-.38-1.41-52.28,3.51-105.62,41.33-115.85,94.51-3.73,19.41-1.29,39.4,8.84,56.55,7.92,13.41,19.61,24.31,32.61,32.72,7.29,4.72,15.27,9.19,23.54,11.98,7.16,2.42,15.24,3.21,22.74,3.87,11.79,1.03,23.69.68,35.42-.92,24.56-3.34,48.32-11.97,69.5-24.81,11.47-6.95,22.2-15.13,31.97-24.31,11.13-10.45,20.57-22.5,31.36-33.29,21.28-21.3,46.32-39.49,74.74-49.95,25.27-9.31,53.35-11.96,79.99-8,35.45,5.28,67.02,24.05,89.24,52.05,10.36,13.05,17.87,27.27,24.16,42.57,4.59,11.16,9.54,21.89,12.92,33.53s5.59,22.99,6.76,34.75c2.15,21.7.39,43.68-4.88,64.82-9.11,36.53-28.09,70.02-51.64,99.14-14.08,17.41-29.91,33.77-47.42,47.78-.87.69-1.74,1.39-2.63,2.05-1.11.83,1.02.81,1.34.84,1.21.1,2.92-.64,3.89-1.36h0Z" fill="#fff"/>
    <path d="M727.74,323.58c2-5.71,6.22-11.03,10.34-15.33,12.19-12.73,28.91-19.63,45.99-22.8l-1.92-2.06c-4.49,4.76-10.41,11.29-10.34,18.21,0,.95,2,.85,2.5.82,27.63-1.86,57.13-16.6,70.94-41.12l-5.59.72c1.61,22.88-5.29,49.59-21.35,66.34-8.09,8.44-18.31,13.9-29.59,16.77-.93.24-2.7.99-2.51,2.22,1.43,9.34,13.13,11.72,20.79,11.65l-.67-2.49c-4.24,2.48-10.9,4.34-16.27,5.43-16.24,3.3-33.04,1.8-49.04-2.04-1.84-.44-6.81,2.35-3.55,3.13,17.2,4.13,35.16,5.45,52.59,1.94,6.73-1.36,13.87-3.27,19.86-6.77,1.61-.94,1.24-2.5-.67-2.49-6.58.06-16.04-2.02-17.25-9.94l-2.51,2.22c19.54-4.97,35.77-17.05,45.14-35.02,6.88-13.2,10.17-28.13,10.83-42.94.14-3.18.22-6.4,0-9.58-.14-2.02-5.02-.3-5.59.72-12.75,22.64-39.16,36.32-64.75,38.04l2.5.82c-.05-5.71,5.48-11.78,9.19-15.72,1.43-1.52-.43-2.34-1.92-2.06-18.42,3.42-36.7,10.46-50.23,23.84-5.12,5.06-10.27,11.3-12.69,18.22-.67,1.93,5.12,1.2,5.79-.73h0Z" fill="#fff"/>
    <path d="M1280.98,485.28c2.21-15.48,1.78-31.76-.65-47.16-1.91-12.13-5.36-24.17-11.2-35.02-2.88-5.35-6.32-10.42-10.38-14.95-2.7-3-4.66-4.61-6.26-8.24-4.95-11.17-9.81-26.44-3.16-37.85,1.41-2.42-4.11-1.45-5.01-.5-8.89,9.28-16.57,22.8-14.17,35.99.35,1.94,5.58.48,5.79-1.15,4.55-35.15-9.87-73.94-42.3-90.71-1.18-.61-6.6.74-5,2.51,6.45,7.16,11.42,17.26,10.08,27.05l5.21-1.76c-11.54-3.92-22.89-8.52-34.03-13.44-18.44-8.14-38.38-17.27-53.02-31.48-5.43-5.27-11.13-12.51-9.1-20.57.53-2.1-3.97-.92-4.69-.46-14.91,9.57-22.16,27.53-16.83,44.54l4.68-2.33c-16.51-2.97-24.99-18.74-23.67-34.49.19-2.3-4.38-.93-5.21-.09-8.05,8.19-12.14,20.18-9.65,31.46l5.59-1.9c-11.62-9.88-28.54-14.66-43.41-10.93-6.02,1.51-11.61,4.38-16.54,8.12-2.68,2.04-5.13,4.34-7.4,6.82-1.48,1.62-2.99,3.28-4.25,5.07.47-.67-1.12,2-1.21,2.1.18-.19.72-.47.25-.13-4.88,3.49-13.62,4.27-19.3,4.25-16.02-.05-28.31-9.91-36.3-23.16-.97-1.61-5.69.08-5.59,1.9.64,11.51,3.85,25.48,12.9,33.31l.9-1.96c-11.33,6.38-26.38,7.76-35.42-3.02-1.06-1.26-5.39-.2-5.59,1.5-.88,7.49-1.71,20.38,6.03,24.6l3.44-3.01c-14.8.37-28.91,10.32-37.4,21.8-4.48,6.06-7.83,12.93-10.34,20.02-1.05,2.99-2.11,5.49-3.76,8.22-6.6,10.91-16.14,19.07-29.06,20.74-9.62,1.25-22.13.93-24.69-10.69-.43-1.96-5.54-.47-5.79,1.15-.84,5.44.26,11.53,2.8,16.37,6.18,11.75,20,14.57,32.21,14.51,2.15-.01,6.16-3.26,2.27-3.24-11.61.06-24.58-2.93-29.56-14.66-1.77-4.17-2.63-9.19-1.93-13.71l-5.79,1.15c2.46,11.17,14.29,13.46,24.17,12.9s19.95-3.31,28.09-9.75c6.62-5.24,12.46-12.61,15.73-20.45,2.96-7.08,5.25-14.03,9.63-20.47,3.71-5.45,8.31-10.35,13.79-14.03,3.9-2.62,8.21-4.67,12.77-5.81,1.16-.29,2.33-.5,3.51-.68.63-.09,1.83-.14,1.07-.12.91-.02,5.93-1.66,3.44-3.01-6.59-3.59-5.59-16.29-4.86-22.56l-5.59,1.5c11.08,13.21,30.86,10.05,44.39,2.44.52-.29,1.65-1.31.9-1.96-8.83-7.64-11.87-21.35-12.49-32.61l-5.59,1.9c6.89,11.42,16.95,20.5,30.29,23.22,8.69,1.78,17.86.9,26.28-1.72,2.23-.69,4.62-1.42,6.69-2.53.78-.42,1.32-.7,1.97-1.32,3.38-3.2,5.7-7.55,9.21-10.77,10.07-9.26,22.71-12.43,35.81-8.48,6.34,1.91,12.83,5.13,17.91,9.45,1.19,1.01,6.06.24,5.59-1.9-2.25-10.18,1.13-21.52,8.49-29l-5.21-.09c-.96,11.51,2.01,22.86,11.46,30.15,4.15,3.2,9.24,5.77,14.44,6.7,1.07.19,5.26-.47,4.68-2.33-4.83-15.39.95-32.54,14.61-41.31l-4.69-.46c-4.03,15.96,16.68,28.89,27.78,35.8,17.58,10.95,36.81,19.34,56.1,26.78,4.45,1.72,8.92,3.4,13.44,4.94,1.3.44,4.95.12,5.21-1.76,1.42-10.36-3.63-20.96-10.48-28.57l-5,2.51c31.54,16.31,45.55,54.53,41.13,88.68l5.79-1.15c-2.21-12.13,4.79-24.95,13.01-33.53l-5.01-.5c-5.92,10.15-3.46,22.7.25,33.2,1.13,3.19,2.29,6.94,4.16,9.81,2.66,4.09,6.92,7.37,9.83,11.42,14.02,19.5,18.23,44.91,18.3,68.46.02,7.05-.28,14.18-1.28,21.17-.32,2.22,5.51,1.2,5.79-.74h0Z" fill="#fff"/>
    <path d="M1118.47,536.09c4.04-4.54,5.16-11.42,4.57-17.25-1.93-19.27-20.12-34.23-34.51-44.85-1.5-1.11-6.69.74-4.93,2.8,4.93,5.77,13.21,18.52,4.56,24.42l4.14-.42c-10.09-5.27-19.85-11.44-28.98-18.23-8.8-6.54-29.66-21.68-22.67-35.1,1.07-2.05-2-2.31-3.23-2.04-7.85,1.73-16.08,4.4-22.87,8.77-3.4,2.19-7.26,5.42-7.51,9.77-.34,5.82,5.92,9.9,10.22,12.5l3.97-3.4c-8.25-1.6-16.46-3.86-24.37-6.69-7.28-2.61-25.56-8.79-22.35-19.57.64-2.15-3.29-1.6-4.16-1.26-3.4,1.34-6.77,3.62-9.08,6.46-4.32,5.3-3.05,11.18.77,16.37l4.37-3.05c-11.78-3.39-25.17-4.56-37.18-1.97-6.98,1.51-14.57,5.65-18.34,9.83-5.67,6.28-13.47,9.34-21.75,10.52-1.13.16-5.03,2.29-2.56,3.52,8.31,4.16,18.41,5.51,27.28,2.52,3.43-1.15,2.55-4.78-.96-3.6-7.06,2.38-15.16,1.23-21.8-2.08l-2.56,3.52c8.53-1.22,16.95-3.94,23.65-9.53,4.54-3.79,7.58-7.82,13.55-9.9,11.52-4.01,25.69-2.53,37.27.8,1.41.4,6-.85,4.37-3.05-5.31-7.2-2.51-14.18,5.44-17.31l-4.16-1.26c-3.39,11.41,13.2,18.17,21.19,21.32,8.99,3.55,18.47,6.2,27.96,8.04,1.43.28,6.85-1.66,3.97-3.4-3.47-2.09-9.62-5.74-8.82-10.68.6-3.7,4.96-6.05,7.95-7.58,5.46-2.79,11.49-4.71,17.47-6.03l-3.23-2.04c-7.38,14.18,10.85,28.79,20.44,36.3s20.92,14.78,32.18,20.67c1.3.68,2.96.38,4.14-.42,10.97-7.47,3.75-21.3-2.99-29.19l-4.93,2.8c13.7,10.11,30.98,24.32,33.16,42.58.59,4.96-.65,11.72-3.49,14.91-2.38,2.67,3.19,3.23,4.78,1.45h0Z" fill="#fff"/>
    <path d="M937.65,546.06c6.12,20.13,12.58,40.16,19.27,60.1,5.32,15.87,10.8,31.69,16.78,47.32,4.19,10.94,8.29,22.43,14.42,32.48,1.18,1.93,1.99,2.01,1.11,3.75-1.39,2.74-4.22,5.32-6.12,7.72-3.96,4.99-7.92,9.98-11.88,14.98l5.75-1.31c-6.84-9.13-13.04-18.83-18.65-28.75-4.4-7.77-8.47-15.8-11.45-24.23-2.49-7.04-4.76-15.2-2.79-22.64l-5.75,1.31c4.82,7.91,10.19,15.57,16.24,22.58.69.8,5.96-.64,5.63-1.74-3.53-11.95-6.95-23.93-10.28-35.93-4.7-16.9-10.01-34.01-12.83-51.34-1.42-8.71.38-18.76,6.31-25.59.22-.25-4.58-.23-5.7,1.07-10.86,12.5-6.11,29.21-2.61,43.41,4.64,18.81,9.92,37.46,15.28,56.07,1.33,4.63,2.67,9.26,4.04,13.87l5.63-1.74c-5.94-6.88-11.19-14.44-15.92-22.2-.66-1.08-5.45.18-5.75,1.31-4.06,15.37,6.4,33.52,13.6,46.39,5.75,10.27,12.14,20.3,19.2,29.72.95,1.27,4.99-.35,5.75-1.31,6.29-7.93,12.58-15.87,18.88-23.8l.05-.24c-4.81-6.35-7.83-14.28-10.87-21.57-4.85-11.62-9.19-23.46-13.39-35.33-8.23-23.22-15.87-46.65-23.25-70.15-1.65-5.24-3.28-10.48-4.88-15.74-.36-1.2-6.14.43-5.8,1.55Z" fill="#fff"/>
    <path d="M1110.64,707.81c2.81-3.2,4.26-8.73,5.89-12.52,5.35-12.47,10.54-24.98,16.13-37.35,12.44-27.54,25.61-54.99,35.18-83.7l-5.23,1.67c6.93,3.11-2.5,25.97-4.38,31.96-5.95,19.02-12.07,38.02-19.01,56.71-2.93,7.89-5.8,16.08-10.05,23.39-.83,1.43,4.6.13,5.12-.26,5.83-4.41,11.36-9.32,16.39-14.62l-5.54.91c-.12,7.28-2.26,15.41-6.58,21.31-3.12,4.26-8.34,7.62-12.42,10.95-10.03,8.16-20.06,16.32-30.09,24.48l5.12-.26c3.23-7.66,6.46-15.33,9.69-22.99.52-1.24-5.06-.68-5.74.93-3.23,7.66-6.46,15.33-9.69,22.99-.69,1.64,4.61.16,5.12-.26,10.64-8.65,21.27-17.3,31.91-25.95,4.31-3.51,9.22-6.79,12.31-11.46,4.05-6.12,6.04-13.96,6.17-21.28.03-1.61-5.04.38-5.54.91-4.8,5.06-10.03,9.74-15.6,13.95l5.12-.26c3.83-6.58,6.48-13.91,9.16-21.01,3.8-10.07,7.28-20.25,10.68-30.46,4.86-14.62,9.45-29.32,13.97-44.04,1.37-4.47,4.85-15.22-1.4-18.03-1.19-.54-4.75.25-5.23,1.67-9.42,28.25-22.34,55.27-34.58,82.37-5.51,12.2-10.7,24.51-15.94,36.83-1.57,3.69-4.16,11.34-6.23,13.71-1.32,1.51,4.27.89,5.29-.26Z" fill="#fff"/>
    <path d="M1247.02,701.53c.69,6.35,1.81,12.69,3.22,18.92,1.87,8.24,4.16,19.23,10.74,25.17,4.92,4.44,11.38-.14,16.56-2.21,6.66-2.66,13.31-5.31,19.97-7.97l-4.03-.8c-1.95,7.27-1.42,15.81,1.06,22.85,6.15,17.41,24.33,24.18,41.28,26.13l2.91-3.18h-53.32l1.77.85c-2.64-7.36-5.27-14.72-7.91-22.08-.65-1.8-4.28-.56-5.22.32-7.89,7.36-15.78,14.72-23.67,22.08l3.45-1.16h-42.47l-1.53,3.21c13.74-1.73,32.9-6.47,40.8-18.93,1.59-2.5,3.22-5.84,2.18-8.7-1.19-3.26-3.6-6.5-5.4-9.44-3.27-5.36-8.67-16.54-16.44-14.85l3.08,1.48c6.19-10.8,12.37-21.59,18.56-32.39,1.33-2.33-4.45-1.74-5.39-.1-6.19,10.8-12.37,21.59-18.56,32.39-1.08,1.89,2.12,1.68,3.08,1.48-2.05.45-.64-.05-.06.7.39.5,1.07.91,1.54,1.37,1.33,1.32,2.49,2.82,3.6,4.32,2.35,3.17,4.44,6.52,6.44,9.92,1.21,2.05,3.53,4.89,4.06,7.26.6,2.66-1.74,6.27-3.36,8.26-7.45,9.13-22.1,12.68-33.33,14.09-1.87.23-5.26,3.21-1.53,3.21,13.88,0,27.87.56,41.73,0,5.06-.21,8.63-5.31,12.11-8.55,5.25-4.9,10.5-9.8,15.75-14.69l-5.22.32c2.64,7.36,5.27,14.72,7.91,22.08.25.69,1.13.85,1.77.85h53.32c1.41,0,6.18-2.8,2.91-3.18-16.58-1.91-34.12-8.55-39.48-25.89-2.01-6.51-2.41-14.08-.63-20.71.51-1.89-3.34-1.08-4.03-.8-10,3.99-20,7.98-30,11.97l3.45-.22c-8.05-3.63-10.63-17.32-12.41-24.95-1.53-6.55-2.72-13.23-3.45-19.92-.2-1.88-6.03-.61-5.8,1.55Z" fill="#fff"/>
    <path d="M1301.96,755.81c2.98-3.95,5.97-7.9,8.95-11.85l-5.55.88c7.03,17.97,28.8,27.39,46.16,30.88l3.67-2.68c-14.21-.57-28.43-1.13-42.64-1.7-1.45-.06-6.66,2.56-3.67,2.68,14.21.57,28.43,1.13,42.64,1.7,1.22.05,6.9-2.03,3.67-2.68-16.5-3.32-37.36-12.69-44.03-29.75-.63-1.62-4.86-.04-5.55.88-2.98,3.95-5.97,7.9-8.95,11.85-1.31,1.73,4.35,1.06,5.31-.21h0Z" fill="#fff"/>
    <path d="M999.48,830.84c1.42,3.54,2.18,7.98.96,11.66-3.5,10.59-10.97-1.06-13.01-5.66-2.38-5.37-3.5-12.14,1.77-16.07,1.38-1.03-.01-.4.76-.36.85.05,1.57.2,2.36.53,3.92,1.63,5.85,6.22,7.17,9.9.68,1.9,6.43.21,5.8-1.55-2.65-7.38-8.02-13.89-16.53-11.46-9.12,2.6-10.73,11.97-7.43,19.79,3.51,8.31,10.19,16.55,19.71,10.58,6.51-4.08,6.9-12.31,4.25-18.9-.76-1.9-6.48-.15-5.8,1.55Z" fill="#fff"/>
  </g>
  <g id="_arm-flesh" data-name="#arm-flesh">
    <path d="M743.64,711.48c13.02-11.81,26.78-24.71,42.35-33.06,1.66-.89.85-1.47-.46-1.73-1.86-.36-4.55.79-6.15,1.65-16.01,8.59-30.18,21.77-43.57,33.92-1.45,1.31,1.3,1.29,2.01,1.26,1.81-.09,4.44-.77,5.83-2.03h0Z" fill="#fff"/>
    <path d="M757.63,886.94c28.95-8.19,58.31-24.38,78.31-46.97,3.65-4.12-4.62-5.75-7.31-2.71-18.5,20.89-45.86,35.95-72.64,43.52-5.35,1.51-3.74,7.68,1.65,6.16h0Z" fill="#fff"/>
  </g>
  <g id="_hand-group" data-name="#hand-group">
    <circle cx="639.77" cy="810.63" r="73.12" fill="url(#radial-gradient)"/>
    <path d="M638.12,718.9c-10.99,4.88-24.23,7.33-35.97,4.26-.98-.26-5.33.42-5.29,1.86.3,10.47-3.43,22.9-13.15,28.13-2.47,1.33,2.56.81,3.19.61,10.51-3.32,20.83-10.2,26.53-19.73l-4.75,1.66c6.62.48,13.55-.58,19.87-2.49,2.64-.8,5.77-1.57,7.76-3.53,2.8-2.75,4.92-7.41,6.31-10.99.33-.85-5.14-.38-5.7,1.06-1.11,2.86-2.59,5.49-4.27,8.06-2,3.04-2.4,3.21-6.14,4.24-4.5,1.23-9.36,1.74-14.02,1.4-1.27-.09-4.02.44-4.75,1.66-4.95,8.28-13.6,14.61-22.79,17.51l3.19.61c10.51-5.65,14.87-18.3,14.53-29.74l-5.29,1.86c14.28,3.73,30.77.1,44.05-5.8,3.46-1.54-1.99-1.21-3.3-.63Z" fill="#fff"/>
    <g>
      <path d="M643.11,708.38c-1.45,9.91-6.62,25.51-17.88,27.6-2.62.49-4.97,3.37-.83,3.05,5.07-.39,10.15-1.04,15.15-1.94,5.89-1.06,12.93-2.18,17.66-6.16l-4.1,1.1c11.74,1.77,24.02,4.58,34.68,9.9,4.93,2.46,10.48,5.89,10.79,11.88.48,9.22,1.57,17.89,6.91,25.76,1.03,1.51,5.67-.09,5.59-1.89-.44-10.52-.36-25.63,7.1-33.86.43-.48.21-1.17-.37-1.38-10.44-3.84-20.75-8.08-30.91-12.59-7.92-3.52-15.79-7.23-23.33-11.53-5.24-2.99-11.37-6.35-14.88-11.44-1.05-1.52-6.67.38-5.39,2.23,3.41,4.93,9.29,8.24,14.35,11.19,7.6,4.44,15.58,8.22,23.6,11.82,10.48,4.69,21.13,9.08,31.91,13.04l-.37-1.38c-7.91,8.73-7.99,24.3-7.52,35.45l5.59-1.89c-3.63-5.35-5.4-11.6-6.14-17.98-.34-2.93.11-6.14-.51-9.01-1.46-6.74-10.16-10.61-15.79-12.94-7.86-3.26-16.21-5.4-24.53-7.1-2.2-.45-4.46-1.03-6.7-1.24-2.8-.25-4.12,1-6.5,2.18-7.39,3.67-17.35,4.09-25.48,4.72l-.83,3.05c14.86-2.77,22.46-17.54,24.5-31.43.31-2.14-5.51-1.12-5.78.77Z" fill="#fff"/>
      <path d="M715.21,740.32c8.97-8.03,17.94-16.07,26.91-24.1.52-.47.77-1.44.26-2l-4.9-5.48c-1.05-1.18-3.44-.92-4.55.03-10.7,9.09-21.4,18.18-32.1,27.27-2.99,2.54,1.68,4.2,3.78,2.42,10.7-9.09,21.4-18.18,32.1-27.27l-4.55.03,4.9,5.48.26-2c-8.97,8.03-17.94,16.07-26.91,24.1-2.63,2.35,3.02,3.12,4.8,1.52h0Z" fill="#fff"/>
      <path d="M714.98,741.2c.24-.69.48-1.37.72-2.06.15-.43-.21-.75-.55-.9-.54-.23-1.33-.21-1.89-.12-.75.12-1.54.33-2.2.73-.45.27-.95.59-1.13,1.12-.24.69-.48,1.37-.72,2.06-.15.43.21.75.55.9.54.23,1.33.21,1.89.12.75-.12,1.54-.33,2.2-.73.45-.27.95-.59,1.13-1.12h0Z" fill="#fff"/>
    </g>
    <g>
      <path d="M708.55,849c.37-.23.74-.46,1.12-.68.28-.14.52-.33.72-.57.19-.16.32-.36.4-.6v-.39c-.06-.22-.19-.37-.38-.45-.39-.25-.9-.33-1.36-.33-.75,0-1.59.13-2.27.46-.81.4-1.62.76-2.31,1.37-.3.27-.72.72-.59,1.18s.71.66,1.1.73c.71.11,1.47.05,2.15-.15s1.4-.46,1.94-.94c.08-.07.16-.14.25-.2l-.53.37c.21-.15.44-.27.67-.38l-.66.32c.07-.03.14-.07.21-.1l-2.89-1.87c-.38.22-.75.45-1.12.68-.39.24-1,.66-1.12,1.16-.1.44.17.8.57.96.59.24,1.28.25,1.9.16.76-.12,1.54-.33,2.2-.73Z" fill="#fff"/>
      <path d="M758.69,887.36l1-11.77c.17-2.04-3.8-.85-4.66-.35-14.64,8.57-33.04,11.83-49.74,11.7l1.74.75c-.76-5.47-1.21-11.01-1.4-16.53-.23-6.59-1.28-17.74,3.82-22.95,1.75-1.79-3.72-1.2-4.45-.74-11.74,7.29-21.4,17.62-23.11,31.88-.13,1.12-.42,2.74-.05,3.84s1.7-.77.56.28c-1.34,1.24-3.68,2.01-5.32,2.71-9.33,3.94-19.55,4.87-29.56,3.82-.67-.07-6.31,1.28-4.5,2.58,16.03,11.59,36.7,12.01,54.15,3.49l-4.07-1.13-.06.05c-1.38,1.09-.08,1.91,1.14,1.92,20.59.06,42.27-1.6,61.96-7.83,3.36-1.07,2.75-3.73-.71-2.64-18.74,5.93-39.34,7.47-58.93,7.41l1.14,1.92.06-.05c2.67-2.11-3.1-1.6-4.07-1.13-14.62,7.14-32.08,5.31-45.22-4.2l-4.5,2.58c14.42,1.51,31.16-.32,43.38-8.91.31-.22.71-.74.6-1.16-1.49-5.71,1.73-13.06,4.26-18.13,3.39-6.79,10.05-11.87,16.37-15.79l-4.45-.74c-5.16,5.27-4.45,15.61-4.32,22.36.12,6.23.61,12.49,1.46,18.66.09.68,1.27.75,1.74.75,18.7.15,39.23-3.7,55.59-13.27l-4.66-.35-1,11.77c-.18,2.14,5.62,1.01,5.78-.8Z" fill="#fff"/>
      <path d="M709.06,848.8c.29-.15.59-.28.86-.47.08-.05.16-.11.24-.15l-.65.34s.07-.03.1-.05l-.76.26h.04c-.74-.82-1.48-1.63-2.22-2.43-.2.11-.4.22-.59.34-.28.15-.52.36-.71.61-.19.18-.32.39-.38.65-.07.23-.03.44.11.62.09.22.26.38.49.47l.53.18c.46.09.92.11,1.38.05.78-.11,1.51-.35,2.19-.75.2-.11.39-.23.59-.34l.52-.39c.22-.17.38-.39.47-.65.1-.13.13-.28.1-.43.03-.22-.04-.42-.21-.59l-.39-.28-.53-.18c-.34-.08-.68-.1-1.02-.06-.39,0-.77.06-1.15.17-.61.2-1.12.37-1.66.72-.1.07-.2.14-.31.2l.65-.34-.03.02c-.34.13-.64.31-.91.53-.25.16-.46.37-.63.62-.16.2-.23.42-.19.65-.03.22.04.42.21.59l.39.28c.38.17.77.26,1.18.26l.73-.03c.53-.07,1.05-.2,1.54-.41Z" fill="#fff"/>
    </g>
    <path d="M663.12,899.49c-4.22,3.52-10.23,9.22-8.9,15.28l5.56-2.01c-5.37-5.08-11.13-9.82-17.1-14.16-7.8-5.68-17.47-12.45-27.57-12.03l1.58,3.14c6.27-3.9,14.59-4.77,21.75-3.89,3.27.4,16.86,1.7,16.9,6.27.03,2.85,5.87,1.85,5.85-.53-.08-7.58-14.79-8.91-20.21-9.61-9.43-1.22-19.87.32-28.05,5.4-2.27,1.41-.36,3.22,1.58,3.14,8.99-.37,18.71,7.55,25.48,12.62,5.02,3.77,9.9,7.79,14.46,12.1,1.43,1.36,6.13.59,5.56-2.01-.94-4.29,3.84-8.84,6.87-11.37s-1.68-4.1-3.77-2.36h0Z" fill="#fff"/>
  </g>
</svg>