<?xml version="1.0" encoding="UTF-8"?>
<svg id="Layer_2" data-name="Layer 2" xmlns="http://www.w3.org/2000/svg" viewBox="0 0 1920 1080">
  <g id="main5-line">
    <rect width="1920" height="1080" fill="none"/>
  </g>
  <g id="dragon-cloth">
    <g>
      <g>
        <path d="M1290.04,693.01s-11.77-3.24-15.38-8.81c-24.24-37.44-46.03-192.39-38.59-192.77,13.15-.66,34.35,26.04,34.54,45.6.25,24.85,15.87,39.69,31.18,35.21,0,0-30.83,11.73-39.03-5.34-8.2-17.07-4.96,39.85,32.45,48.96,0,0,.86,9.16-12.77,8.03,0,0,6.92,12.53,3.66,30.2-3.26,17.66,32.78,30.52,32.78,30.52,0,0-12.42,10.14-28.83,8.41" fill="#87afe2"/>
        <path d="M1292.38,691.75c-4.77-1.34-10.23-3.39-13.71-7.01-2.7-2.81-4.41-6.96-6.01-10.47-4.03-8.82-7.05-18.11-9.79-27.41-7.01-23.79-12.03-48.2-16.3-72.62-3.71-21.2-7-42.61-8.58-64.09-.4-5.42-1.15-11.37-.21-16.78.05-.3.53-1.45.44-1.68-.06-.17-2.72.37-2.03,1.21.35.42,3.37.98,4.07,1.3,6.12,2.82,11.18,8.25,15.23,13.5,5.22,6.76,9.49,14.71,11.36,23.09s.93,17.34,4.55,25.81c5.35,12.55,17.04,20.42,30.71,16.81l-1.39-2.11c-7.92,2.98-18.09,5.05-26.28,2.29-2.58-.87-4.94-2.3-6.74-4.37-1.41-1.62-1.98-3.75-3.33-5.37-1.56-1.87-4.05-2.03-6.18-.68-4.22,2.67-1.41,11.35-.43,15.05,2.6,9.84,7.49,19.4,14.55,26.79,4.31,4.51,9.54,8.16,15.36,10.45,2.21.87,4.58.34,4.54,2.55-.08,4.09-4.93,4.65-7.93,4.49-.69-.04-5.52.68-4.72,2.16,3.21,5.94,4.44,13.29,4.53,19.96.06,4.91-1.76,10.04-.84,14.89.6,3.14,2.33,5.96,4.35,8.39,7.08,8.55,18.65,14.26,28.96,17.96l.07-1.55c-6.85,5.49-16.08,8.02-24.73,7.31-1.53-.12-6.71,2.51-3.65,2.76,11.39.93,23.89-2.26,32.93-9.51.56-.45.98-1.22.07-1.55-10.09-3.63-21.32-9.15-28.22-17.56-6.28-7.64-2.78-15.26-3.18-24.27-.28-6.17-1.51-12.9-4.48-18.41l-4.72,2.16c6.38.36,18.15-1.27,17.5-10.19-.1-.25-.29-.42-.55-.49-18.77-4.84-30.81-22.45-34.67-40.7-.54-2.53-1.12-5.35-.9-7.95.03-.33.48-1.79.39-2.04-.56-1.57-4.33-.04-4.01,1.36.08.36.67.72.82,1.1,3.24,8.64,12.63,11.24,20.98,11.2,7.64-.03,15.56-1.72,22.71-4.41,3.22-1.21,1.16-2.78-1.39-2.11-16.59,4.39-26.2-16.09-27.64-29.2-.87-7.93-1.15-14.84-4.49-22.28-3.02-6.72-7.19-13.02-12.19-18.43-4.02-4.35-8.97-8.7-14.76-10.44-2.7-.81-7.3-1.5-9.43,1.03s-1.32,8.47-1.24,11.54c.58,20.23,3.79,40.54,7.02,60.49,4.2,26,9.28,51.95,16.25,77.35,3.1,11.3,6.53,22.63,11.27,33.36,1.72,3.89,3.54,8.29,6.28,11.6,3.57,4.31,9.9,6.72,15.15,8.2,1.53.43,6.72-1.96,4.69-2.53h0Z" fill="#fcfff0"/>
      </g>
      <g>
        <path d="M1280.24,721.05l2.35,8.97,109.25-55.24,38.26,9.54-17.3-12.16,24.83-4.57-23.52-5.74,20.36-14.5-34.33,8.32-15.26-28.71,3.22,36.52s-6.69,10.8-18.35,15.71-89.52,41.86-89.52,41.86Z" fill="#7c838e"/>
        <path d="M1278.79,721.44l2.35,8.97c.22.85,1.5.77,2.09.48,3.62-1.83,7.24-3.66,10.87-5.49,8.7-4.4,17.4-8.8,26.1-13.19,10.52-5.32,21.05-10.64,31.57-15.96,9.1-4.6,18.19-9.2,27.29-13.8l8.96-4.53c1.4-.71,2.94-1.32,4.27-2.16.06-.04.13-.07.19-.1l-1.48.12c11.18,2.79,22.36,5.58,33.55,8.37,1.57.39,3.15.78,4.72,1.18.66.17,1.42.07,1.92-.43.4-.4.57-1.01.03-1.4-5.77-4.05-11.53-8.11-17.3-12.16l-.85,1.85c7.25-1.33,14.49-2.67,21.74-4l3.09-.57c.86-.16,1.88-1.67.57-1.99-6.85-1.67-13.7-3.34-20.54-5.01-.99-.24-1.99-.48-2.98-.73l.13,1.66c5.95-4.23,11.89-8.47,17.84-12.7.84-.6,1.68-1.2,2.52-1.8,1.31-.93-.14-1.94-1.23-1.67-10,2.43-20.01,4.85-30.01,7.28-1.44.35-2.88.7-4.31,1.05l1.59.36c-4.46-8.39-8.92-16.78-13.38-25.17-.63-1.18-1.25-2.36-1.88-3.54s-2.88-.13-2.77,1.03c.89,10.08,1.78,20.16,2.67,30.24l.5,5.66c.05.52.22.9.08.12.02.09.15-.17,0,.01-.1.12-.18.27-.27.39-.27.4-.56.79-.85,1.18-4.56,6.08-10.4,10.75-17.37,13.77-9.35,4.06-18.55,8.47-27.78,12.79-12.76,5.97-25.5,11.97-38.23,17.99-7.41,3.5-14.9,6.89-22.25,10.53-.11.06-.23.11-.34.16-.54.26-1.09.91-.68,1.51s1.42.49,1.97.22c6.28-2.98,12.56-5.95,18.84-8.92,12.74-6.02,25.48-12.03,38.24-18.01,10.02-4.7,20.03-9.45,30.15-13.94,2.41-1.07,4.81-2.09,7.07-3.47,3.84-2.34,7.28-5.32,10.27-8.67,1-1.12,1.95-2.29,2.84-3.5.37-.51.95-1.14,1.19-1.73.34-.85-.07-2.33-.15-3.2-.97-11.02-1.94-22.04-2.91-33.05l-.07-.85-2.77,1.03c4.46,8.39,8.92,16.78,13.38,25.17.63,1.18,1.25,2.36,1.88,3.54.27.5,1.15.47,1.59.36,10-2.43,20.01-4.85,30.01-7.28,1.44-.35,2.88-.7,4.31-1.05l-1.23-1.67c-5.95,4.23-11.89,8.47-17.84,12.7-.84.6-1.68,1.2-2.52,1.8-.58.42-.75,1.44.13,1.66,6.85,1.67,13.7,3.34,20.54,5.01.99.24,1.99.48,2.98.73l.57-1.99c-7.25,1.33-14.49,2.67-21.74,4l-3.09.57c-.76.14-1.75,1.21-.85,1.85,5.77,4.05,11.53,8.11,17.3,12.16l1.95-1.83c-11.5-2.87-23-5.74-34.5-8.6-1.35-.34-2.89-.98-4.29-1.02-.75-.02-1.49.47-2.14.8-3.07,1.55-6.14,3.1-9.2,4.65-12.04,6.09-24.09,12.18-36.13,18.27-13.45,6.8-26.9,13.6-40.35,20.4l-14.73,7.45c-2.43,1.23-5,2.33-7.35,3.72-.1.06-.21.11-.31.16l2.09.48-2.35-8.97c-.35-1.35-3.25-.58-2.9.78Z" fill="#fcfff0"/>
      </g>
      <g>
        <path d="M1117.77,726.41l-1.57,9.14-116.56-45.51-38.15,12.84,16.52-13.62-25.75-2.39,23.46-7.77-22.11-12.67,35.79,5.3,12.91-29.94.1,36.66s7.83,10.17,20.18,14.05c12.35,3.88,95.19,33.9,95.19,33.9Z" fill="#7c838e"/>
        <path d="M1116.32,726.59c-.52,3.05-1.05,6.09-1.57,9.14l2.6-.88c-6.5-2.54-13-5.07-19.49-7.61-14.05-5.49-28.11-10.97-42.16-16.46s-26.79-10.46-40.18-15.69c-3.96-1.55-7.92-3.09-11.88-4.64-.86-.34-1.72-.68-2.58-1.01-.96-.36-1.75-.08-2.67.23-12.02,4.05-24.03,8.09-36.05,12.14l-1.05.35,1.35.96c4.82-3.97,9.64-7.95,14.46-11.92l2.06-1.7c.71-.59,0-1-.6-1.06-7.51-.7-15.02-1.39-22.53-2.09-1.07-.1-2.15-.2-3.22-.3l-.37,1.54c6.84-2.26,13.68-4.53,20.52-6.79.98-.32,1.96-.65,2.94-.97.46-.15,1.91-.88.96-1.42-6.44-3.69-12.88-7.38-19.32-11.07l-2.79-1.6-2.04,1.48c10.45,1.55,20.9,3.09,31.35,4.64,1.48.22,2.96.44,4.44.66.81.12,1.98-.14,2.34-.97,3.77-8.75,7.54-17.5,11.31-26.25.53-1.23,1.06-2.46,1.59-3.69l-2.9.57c.03,10.37.05,20.75.08,31.12,0,1.7-.14,3.48.01,5.17.1,1.03,1.24,1.9,1.92,2.63,2.62,2.79,5.58,5.27,8.78,7.38s7.38,3.94,10.72,5.03c9.94,3.25,19.77,6.84,29.62,10.35,13.53,4.82,27.05,9.68,40.56,14.55,7.91,2.85,15.79,5.75,23.71,8.57.12.04.23.08.35.13.66.24,1.47.1,2.05-.27.33-.21.93-.88.26-1.13-6.51-2.36-13.02-4.71-19.53-7.06-13.32-4.8-26.63-9.6-39.97-14.36-10.77-3.85-21.53-7.73-32.37-11.39-1.92-.65-3.87-1.21-5.75-1.96-4.48-1.78-8.58-4.42-12.21-7.58-1.79-1.56-3.89-3.32-5.23-5.33-.17-.26-.02-.02-.02-.01-.02-.13,0-.29,0-.42.04-.67,0-1.36,0-2.03-.03-11.11-.06-22.21-.09-33.32v-.85c0-1.09-2.64-.04-2.9.57-3.77,8.75-7.54,17.5-11.31,26.25-.53,1.23-1.06,2.46-1.59,3.69l2.34-.97c-10.45-1.55-20.9-3.09-31.35-4.64-1.48-.22-2.96-.44-4.44-.66-.64-.09-1.4.04-1.92.45-.36.29-.65.73-.12,1.03,6.44,3.69,12.88,7.38,19.32,11.07l2.79,1.6.96-1.42c-6.84,2.26-13.68,4.53-20.52,6.79-.98.32-1.96.65-2.94.97-.91.3-1.97,1.39-.37,1.54,7.51.7,15.02,1.39,22.53,2.09,1.07.1,2.15.2,3.22.3l-.6-1.06c-4.82,3.97-9.64,7.95-14.46,11.92l-2.06,1.7c-1.04.85.75,1.16,1.35.96,11.15-3.75,22.31-7.51,33.46-11.26,1.56-.53,3.13-1.05,4.69-1.58l-1.35-.02c3.88,1.52,7.77,3.03,11.65,4.55,9.24,3.61,18.49,7.22,27.73,10.83,11.26,4.39,22.51,8.79,33.77,13.18,9.69,3.79,19.39,7.57,29.08,11.36,4.7,1.83,9.36,3.87,14.13,5.52.07.02.13.05.2.08.67.26,2.44.05,2.6-.88.52-3.05,1.05-6.09,1.57-9.14.19-1.11-2.73-.62-2.9.36Z" fill="#fcfff0"/>
      </g>
      <g>
        <path d="M1221.29,468.29s144.57-57.26,203.87-51.03c0,0,30.76,4.19,29.69,13.52-1.07,9.33-27.53-24.14-159.29,33.01,0,0,46.5-4.64,42.57,4.61,0,0-3.27,4.98-8.5,6.41,0,0-41.19-4.27-62.77,3.56,0,0-20.39,6.83-26.81,17.08l-18.76-27.17Z" fill="#90a1b9"/>
        <path d="M1222.84,469.44c18.48-7.31,37.26-13.93,56.1-20.23,34.75-11.62,70.32-22.52,106.61-28.09,12.6-1.93,26.09-3.7,38.78-1.65,6.64,1.07,13.63,2.56,19.73,5.45,2.24,1.06,5.62,2.72,6.29,5.38-.04-.14.03,2.4-.13,2.25-.5-.49,4.87-2.17,4.46-1.88.67-.47.78.2.08-.03-.2-.07-1.58-.21-.67-.07-2.15-.32-4.28-.84-6.42-1.23-8.03-1.44-16.12-1.98-24.28-1.84-44.62.74-89.03,17.72-129.4,35.16-2.16.94-4.26,3.44-.3,3.05,7.84-.78,15.78-1.24,23.66-1.15,4.46.05,9.73-.13,13.97,1.5,5.42,2.08.45,6.36-3.26,7.63l4.33-.74c-16.73-1.71-34.09-1.96-50.75.41-7.67,1.09-15.05,3.13-22.16,6.16-8.78,3.74-18.3,8.55-23.75,16.69l8.65-1.88c-6.25-9.06-12.5-18.11-18.76-27.17-1.56-2.26-9.54,1.1-8.69,2.33,6.25,9.06,12.5,18.11,18.76,27.17,1.55,2.25,7.47-.12,8.65-1.88,6.15-9.18,19.58-14.66,30.18-16.9,14.33-3.03,29.54-2.66,44.08-1.77,3,.18,6.17.8,9.18.64,4.73-.25,12.78-4.22,14.64-9.02,2.68-6.88-14.42-6.82-17.65-6.91-9.12-.24-18.3.22-27.38,1.12l-.3,3.05c38.12-16.47,79.8-32.76,121.94-33.66,7.88-.17,15.78.47,23.48,1.94,4.71.9,9.59,2.25,14.11-.25,2.22-1.23,3.22-2.98,2.23-5.54-2.23-5.76-12.04-7.96-17.21-9.33-12.01-3.18-23.91-3.7-36.29-2.72-37.89,3-75.35,14.16-111.41,25.61-24.97,7.93-49.83,16.48-74.2,26.13-5.72,2.26-.36,3.67,3.09,2.31Z" fill="#fcfff0"/>
      </g>
      <g>
        <path d="M1192.86,443.63s26.61-29.32,58.48-30.83c0,0,17.73-9.1,10-12.18,0,0-22.03-2.65-38.48,7.2,0,0,62.95-49.64,85.84-65.23,0,0,26.47-22.76,14.15-23.75,0,0-96.9,53.66-146.8,116.47l16.82,8.32Z" fill="#90a1b9"/>
        <path d="M1196.88,443.64c11.79-12.91,29.56-24.94,47.28-27.89,4.16-.69,7.89-.67,11.61-2.77,3.3-1.86,6.72-3.95,9.38-6.69,2-2.05,3.75-4.89.92-7.01-1.87-1.4-4.71-1.18-6.91-1.27-13.4-.52-27.26,1.93-38.97,8.65l6.12,1.76c14.5-11.43,29.08-22.77,43.73-34,10.57-8.11,21.17-16.18,31.94-24.02,6.39-4.65,12.4-8.9,17.96-14.54,2.93-2.97,15.82-14.91,8.1-18.68-4.78-2.33-9.92,1.63-13.88,3.95-20.32,11.87-40.04,24.84-59.11,38.63-30.26,21.89-59.63,46.24-83.05,75.53-.65.81-.31,1.62.55,2.04,5.61,2.77,11.21,5.55,16.82,8.32,2.38,1.18,10.38-2.36,6.96-4.05-5.61-2.77-11.21-5.55-16.82-8.32l.55,2.04c20.23-25.31,45.1-46.72,70.88-66.2,19.95-15.07,40.76-29.03,62.19-41.91,4.09-2.46,8.19-4.9,12.37-7.21l-5.35,1.1c5.7.69-8.88,15.35-10.57,16.95-5.33,5.04-11.04,8.6-17.28,13.19-19.67,14.45-38.95,29.44-58.19,44.46-4.91,3.83-9.82,7.67-14.71,11.53-1.39,1.09-.95,2.07.37,2.74,1.57.8,4.39-.21,5.75-.98,6.24-3.58,13.11-5.34,20.24-6.03,2.61-.25,5.23-.34,7.85-.31,1.11.01,3.51-.3,4.35.17,2.01,1.13-.5,3.17-2.17,4.46-2.2,1.69-4.64,3.11-7.11,4.38l4.39-1.18c-24.36,1.48-47.93,15.3-64.23,33.15-1.44,1.58,1.24,2.28,2.3,2.34,2.04.13,4.39-.82,5.75-2.32Z" fill="#fcfff0"/>
      </g>
      <g>
        <path d="M1347.89,912.16s-79.57-154-79.28-251.74c0,0,2.01-184.28-88.74-218.83,0,0-89.75-40.59-157.76-5.38-7.03,3.64-12.49,10.3-14.96,18.41-6.74,22.12-8.54,68.82,70,112.01,0,0,51.67,21.3,42.24,89.9-1.16,8.46-1.8,17-1.54,25.55,1.49,48.96,9.98,201.91,58.19,230.07h171.85Z" fill="#11113d"/>
        <path d="M1352.23,911c-18.63-36.09-34.56-73.9-48.36-112.07-11.21-31.01-21-62.79-26.68-95.31-3.03-17.34-3.92-34.57-4.32-52.1-.94-40.6-6.3-81.97-18.71-120.7-7.49-23.36-17.98-46.66-34.32-65.24-12.1-13.76-27-22.65-43.94-29.11-25.49-9.72-52.74-15.88-80.03-16.94-18.09-.7-36.46,1-53.84,6.24-16.51,4.98-33.93,11.97-39.38,29.89-15.31,50.31,31.38,92.98,71.75,113.4,14.76,7.47,26.83,19.85,33.88,34.85,6.63,14.12,8.74,29.94,7.59,45.41-.85,11.38-2.65,22.47-2.36,33.93.11,4.47.3,8.94.5,13.41,1.12,25.59,3.09,51.16,6.23,76.58,3.61,29.15,8.5,58.53,17.67,86.5,3.77,11.48,8.33,22.79,14.58,33.15,2.71,4.5,5.77,8.82,9.36,12.66,2.84,3.04,6.75,7.18,10.73,8.7,2.97,1.14,7.32.36,10.4.36h24.05c43.35,0,86.71,0,130.06,0h9.1c1.62,0,5.05-.58,5.74-2.37s-.57-2.55-2.35-2.55c-34.43,0-68.87,0-103.3,0-19.49,0-38.97,0-58.46,0-3.02,0-7.09.73-10.05,0,2.52.62-.15-.81-.64-1.15-.79-.55-1.54-1.15-2.29-1.75-1.84-1.51-3.56-3.17-5.18-4.92-3.47-3.77-6.46-7.99-9.1-12.38-13.44-22.35-19.74-49.15-24.71-74.47-5.5-28.02-8.78-56.48-10.99-84.93-.9-11.64-1.61-23.29-2.13-34.96-.19-4.32-.37-8.64-.5-12.97-.33-10.97,1.25-21.54,2.2-32.42,2.32-26.51-4.91-53.35-24.63-71.96-4.92-4.64-10.48-8.78-16.48-11.93-10.99-5.78-21.58-12.26-31.45-19.83-20.86-16.01-39.71-37.76-42.87-64.82-.93-7.97-.37-16.06,1.58-23.84,1.83-7.31,5.37-14.17,11.8-18.46,7.54-5.03,17.18-7.97,25.88-10.22,32.21-8.32,66.86-4.12,98.51,4.7,15.57,4.34,32.53,9.76,46.11,18.8,19.85,13.21,33.44,34.22,42.99,55.65,18.22,40.85,25.22,86.78,27.7,131.16.58,10.39.47,19.8.79,29.41,1.02,31.07,8.34,61.88,17.16,91.56,14.85,49.97,35,98.59,58,145.34,1.32,2.68,2.64,5.36,4.02,8.02,1.53,2.95,9.97.15,8.69-2.33Z" fill="#fcfff0"/>
      </g>
      <path d="M1101.72,466.74c-3.09,6.01-2.44,12.92,1.45,15.44s9.56-.3,12.65-6.31c3.09-6.01,2.44-12.92-1.45-15.44-3.89-2.52-9.56.3-12.65,6.31Z" fill="#fcfff0" stroke="#fcfff0" stroke-miterlimit="10" stroke-width="3"/>
    </g>
  </g>
</svg>