<svg width="1146" height="645" viewBox="0 0 1146 645" fill="none" xmlns="http://www.w3.org/2000/svg">
<g clip-path="url(#clip0_3219_504)">
<path d="M197.683 465.114C197.468 465.114 197.875 465.135 197.383 465.114C196.89 465.092 196.419 465.028 195.926 464.942C194.405 464.706 192.906 464.277 191.492 463.677C187.187 461.811 184.552 458.145 183.888 453.535C183.738 452.505 181.254 453.663 180.911 453.985C178.383 456.451 175.577 458.724 172.686 460.739C169.28 463.141 163.154 467.579 158.977 464.492L156.085 465.628C160.605 468.866 166.41 470.839 171.915 471.053C174.485 471.16 175.556 470.324 177.869 469.595C181.211 468.544 185.024 468.158 187.937 470.431C188.622 470.967 189.993 470.453 190.614 470.024C192.585 468.587 194.834 467.129 197.211 466.529C199.054 466.057 198.711 464.771 196.869 465.242C193.72 466.057 190.807 467.815 188.172 469.702L190.85 469.295C186.137 465.607 179.026 467.386 174.035 469.616C173.8 469.724 173.543 469.831 173.307 469.96C174.785 469.166 173.628 469.574 172.579 469.488C172.043 469.445 171.529 469.381 171.015 469.295C168.916 468.973 166.86 468.373 164.889 467.579C162.918 466.786 160.798 465.778 158.999 464.47C158.227 463.913 155.421 465.114 156.107 465.607C161.076 469.295 168.423 465.371 172.836 462.583C176.756 460.096 180.461 457.137 183.781 453.878L180.804 454.328C181.896 462.09 188.943 466.529 196.397 466.636C197.426 466.636 199.739 465.135 197.661 465.114H197.683Z" fill="white"/>
<path d="M203.572 462.776C193.74 467.923 181.917 472.619 170.693 472.318C170.157 472.318 167.415 473.498 168.893 474.098C172.256 475.47 175.726 476.628 179.26 477.464C182.795 478.301 188.428 479.63 191.427 476.607L189.585 477.25C192.284 477.25 195.111 477.743 197.639 478.708C199.781 479.523 201.88 480.81 203.122 482.804C203.422 483.297 203.658 483.811 203.85 484.348C203.957 484.669 204.043 485.012 204.129 485.355C204.065 485.934 204.215 486.041 204.579 485.698C204.579 485.763 204.279 485.999 204.3 486.127C204.514 487.392 205.028 487.907 206.142 488.786C210.383 492.131 215.546 494.49 220.365 496.848C221.093 497.213 224.071 496.269 223.021 495.412C219.101 492.195 211.776 484.991 215.738 479.63C216.488 478.622 214.517 478.558 214.046 478.665C214.646 478.537 213.361 478.708 213.082 478.708C211.904 478.665 210.79 478.322 209.805 477.679C205.393 474.763 205.478 467.987 205.778 463.398C205.864 462.004 202.737 462.562 202.651 463.741C202.287 469.038 202.394 476.371 207.599 479.459C209.612 480.659 212.204 480.96 214.496 480.445L212.804 479.48C208.391 485.42 215.717 493.096 220.129 496.72L222.785 495.283C217.945 492.903 211.947 490.523 207.984 486.685C207.663 486.363 207.128 485.677 207.32 486.084C207.363 486.192 207.106 486.277 207.106 486.406C207.106 486.213 207.406 485.956 207.406 485.655C207.363 484.39 206.892 483.104 206.271 482.01C203.893 477.893 198.731 476.328 194.34 475.685C193.205 475.513 191.941 475.299 190.784 475.385C189.778 475.449 189.413 475.942 188.578 476.307C187.636 476.714 186.393 476.564 185.408 476.457C180.631 476.028 175.79 474.334 171.378 472.554L169.579 474.334C181.66 474.656 194.319 469.874 204.9 464.342C206.785 463.355 205.071 462.112 203.615 462.862L203.572 462.776Z" fill="white"/>
<path d="M211.197 479.201C219.358 475.363 227.519 471.546 235.68 467.708C236.858 467.151 238.036 466.593 239.214 466.057C239.707 465.821 240.221 465.242 240.05 464.642L238.315 458.252C238.058 457.287 236.751 457.351 236.044 457.673C227.155 461.726 218.266 465.8 209.355 469.852C208.091 470.431 206.806 471.01 205.542 471.589C203.615 472.468 205.307 474.334 206.956 473.583C215.845 469.531 224.734 465.457 233.645 461.404C234.909 460.825 236.194 460.246 237.458 459.667L235.187 459.088L236.922 465.478L237.758 464.063C229.597 467.901 221.436 471.718 213.275 475.556C212.097 476.114 210.919 476.671 209.741 477.207C207.834 478.108 209.526 479.973 211.154 479.201H211.197Z" fill="white"/>
<path d="M332.819 177.613C322.945 183.553 314.013 191.165 305.83 199.249C296.727 208.233 288.373 218.161 281.433 228.925C271.859 243.763 259.756 268.829 275.521 283.882C287.024 294.861 305.53 295.461 320.396 294.517C335.261 293.574 349.955 289.822 363.664 283.989C380.393 276.87 394.508 265.249 410.98 257.679C415.649 255.535 420.983 253.348 425.845 252.64C427.537 252.405 428.801 252.297 429.958 252.533C430.772 252.683 431.372 252.876 431.864 253.605C432.186 254.056 432.4 254.999 432.271 255.9C432.057 257.401 431.414 258.73 430.665 260.06C428.009 264.734 424.003 268.658 420.083 272.282C413.657 278.2 406.589 283.432 399.37 288.342C398.085 289.2 396.8 290.036 395.472 290.829C394.058 291.666 393.694 291.859 392.023 292.738C385.469 296.19 378.658 299.106 371.825 301.958C354.517 309.163 336.975 315.831 319.946 323.658C301.546 332.106 283.361 341.777 267.51 354.535C252.538 366.564 239.75 381.488 233.346 399.843C226.063 420.706 228.719 443.392 236.13 463.827C244.484 486.856 259.392 507.119 280.127 520.392C299.169 532.593 321.895 538.382 344.407 538.404C366.92 538.425 390.353 533 410.809 522.579C421.004 517.39 430.558 511 439.147 503.41C450.264 493.61 459.41 481.603 468.106 469.659C487.299 443.306 502.485 414.509 519.364 386.698C525.961 375.849 532.858 364.999 541.405 355.564C547.852 348.445 555.585 341.777 564.988 339.075C569.058 337.917 573.213 337.574 577.412 337.788C578.74 337.853 580.774 338.046 581.631 338.217C581.546 338.217 582.638 338.453 583.002 338.539C583.281 338.625 584.651 339.139 583.987 338.839C584.394 339.01 584.759 339.225 585.123 339.461C585.637 339.782 585.037 339.268 585.615 339.89C585.808 340.083 586.194 340.876 585.937 340.276C586.087 340.597 586.172 340.94 586.236 341.305C586.301 341.712 586.344 341.09 586.236 341.862C586.172 342.291 586.108 342.699 586.001 343.127C585.83 343.814 586.022 343.213 585.722 343.921C585.508 344.393 585.273 344.864 585.037 345.336C582.081 350.804 577.54 355.371 573.235 360.088C566.509 367.465 559.655 374.734 553.057 382.217C535.429 402.266 519.45 423.922 507.669 447.938C504.263 454.885 501.2 462.026 498.544 469.316C496.488 474.913 494.538 480.552 493.532 486.449C491.882 496.055 492.396 506.047 494.753 515.482C499.636 535.037 512.21 552.17 528.382 563.963C546.246 577 568.544 583.004 590.542 581.267C618.944 579.015 644.648 564.327 665.147 545.158C675.664 535.337 685.603 524.337 693.035 511.965C698.862 502.273 703.467 491.852 707.601 481.345C716.811 457.866 723.709 433.593 731.612 409.663C735.297 398.513 739.174 387.385 743.843 376.599C747.634 367.851 751.918 359.081 757.766 351.49C760.101 348.445 762.821 345.443 765.82 343.149C768.583 341.026 771.303 339.568 774.088 338.796C777.365 337.874 781.113 337.895 785.248 338.324C786.04 338.41 786.833 338.517 787.625 338.646C788.139 338.732 786.875 338.496 787.561 338.646C787.754 338.689 787.946 338.71 788.118 338.753C788.525 338.839 788.932 338.925 789.339 339.032C790.153 339.225 790.967 339.461 791.759 339.74C792.145 339.868 792.509 339.997 792.873 340.147C793.794 340.49 792.766 340.061 793.666 340.49C797.264 342.227 799.406 343.856 801.741 346.987C808.702 356.357 808.017 370.531 806.432 381.852C802.64 408.956 791.823 435.158 780.814 459.989C773.274 477.014 760.957 496.505 766.634 516.018C770.339 528.776 781.585 536.624 793.644 540.676C809.559 546.016 827.209 545.973 843.724 544.107C863.751 541.813 883.436 536.409 902.007 528.626C920.835 520.735 938.784 510.185 954.014 496.484C969.243 482.782 979.996 466.872 985.694 447.724C992.227 425.831 990.942 402.544 984.087 380.909C977.104 358.93 965.045 338.775 951.079 320.57C937.349 302.644 921.584 286.348 904.813 271.274C891.811 259.588 878.188 248.609 864.029 238.36C858.546 234.393 852.998 230.448 847.258 226.845C845.544 225.773 839.204 227.896 841.432 230.104C850.835 239.346 859.66 249.253 868.228 259.266C886.584 280.709 903.699 303.459 917.922 327.903C932.144 352.348 945.06 380.223 945.275 408.913C945.36 421.607 942.597 434.236 936.064 445.215C928.717 457.544 917.215 466.764 904.598 473.326C896.138 477.722 887.184 481.109 878.038 483.79C869.77 486.213 860.709 488.829 852.141 488.636C847.536 488.528 843.188 487.671 840.468 483.854C837.983 480.359 837.919 475.17 838.39 470.817C839.954 455.829 846.315 441.205 851.37 427.139C857.689 409.492 863.987 391.63 867.028 373.083C869.727 356.636 869.342 340.04 862.809 324.537C856.276 309.034 847.108 295.611 835.284 284.504C821.233 271.317 803.412 262.547 783.962 261.796C760.294 260.896 735.725 270.716 717.411 285.426C702.075 297.734 692.778 314.33 685.881 332.449C677.399 354.706 670.523 377.435 660.156 398.985C646.276 427.868 633.917 458.102 615.132 484.24C610.548 490.608 605.45 496.934 599.324 501.866C596.839 503.881 594.419 505.489 591.656 506.669C589.514 507.591 587.372 508.02 584.994 507.827C580.325 507.441 574.627 503.817 571.286 500.129C567.944 496.441 566.295 492.024 566.08 487.199C565.502 474.913 572.356 462.626 578.44 452.441C587.372 437.474 598.082 423.601 608.749 409.835C620.015 395.297 631.518 380.93 642.056 365.856C650.453 353.849 658.871 341.048 663.133 326.896C666.325 316.303 665.554 304.938 660.199 295.161C653.602 283.067 640.835 276.227 627.727 273.504C603.972 268.551 578.654 273.718 555.799 280.473C542.562 284.375 529.988 289.586 518.079 296.619C506.169 303.652 496.231 311.436 486.527 320.334C476.16 329.833 466.714 340.297 457.975 351.276C449.985 361.311 442.296 371.71 435.805 382.796C424.089 402.845 414.022 424.995 395.515 439.876C378.572 453.492 350.555 463.055 330.356 450.79C323.03 446.33 318.104 439.018 317.097 430.462C315.791 419.42 321.06 408.527 327.507 399.928C339.566 383.825 357.538 374.219 375.337 365.792C396.457 355.821 417.899 346.623 437.583 333.95C449.171 326.488 460.095 317.997 470.099 308.498C481.301 297.884 491.818 286.069 499.786 272.818C512.338 251.933 517.95 226.459 509.275 203.044C501.693 182.545 484.814 166.764 464.936 158.315C445.059 149.867 423.339 149.202 402.648 151.518C377.501 154.348 354.303 164.812 332.755 177.656C331.555 178.364 331.02 179.908 332.284 180.787C333.676 181.752 335.882 181.023 337.146 180.272C358.93 167.3 382.406 157.114 407.96 155.421C429.08 154.005 450.628 156.021 469.285 166.764C487.941 177.506 502.357 195.99 505.827 217.754C510.239 245.436 496.53 271.617 478.859 291.902C461.188 312.186 438.569 329.49 414.129 342.42C394.829 352.626 374.309 360.431 355.224 371.045C336.139 381.659 319.218 395.426 312.192 415.774C309.129 424.63 309.086 434.451 313.627 442.792C318.168 451.133 325.986 456.043 334.554 458.595C358.137 465.628 385.533 455.207 403.355 439.533C421.133 423.88 431.05 402.137 442.895 382.131C449.578 370.852 457.504 360.26 465.772 350.096C474.597 339.246 484.15 328.933 494.603 319.627C505.056 310.321 515.53 302.751 527.332 296.404C539.927 289.65 553.357 285.147 567.173 281.652C587.672 276.463 611.191 272.625 631.711 279.851C643.17 283.882 652.745 292.33 656.408 304.124C659.856 315.231 657.436 326.209 652.702 336.545C645.955 351.297 636.273 364.677 626.613 377.607C615.517 392.488 603.822 406.919 592.662 421.757C582.831 434.815 572.956 448.26 565.845 463.033C561.111 472.833 556.399 485.376 560.726 496.162C565.052 506.948 577.904 514.152 589.235 511.772C604.079 508.663 614.982 494.125 623.121 482.417C633.638 467.3 642.142 450.811 650.067 434.215C653.109 427.868 656.022 421.457 658.957 415.045C662.084 408.184 665.618 401.537 668.767 394.696C678.534 373.49 684.982 351.125 693.592 329.49C697.062 320.763 701.089 312.207 706.444 304.467C711.799 296.726 718.953 289.671 726.9 284.139C745.6 271.167 769.611 262.718 792.445 267.521C810.866 271.403 826.481 282.96 838.283 297.305C847.643 308.691 855.783 322.307 859.531 336.695C864.072 354.192 861.052 372.868 856.597 390.043C852.141 407.219 845.18 425.209 839.118 442.685C836.655 449.803 834.235 456.987 832.649 464.363C831.493 469.723 830.572 475.513 831.728 480.959C834.363 493.46 848.736 493.868 858.953 492.431C869.17 490.994 879.109 488.1 888.748 484.69C897.551 481.581 906.076 477.807 914.087 473.004C926.468 465.585 937.456 455.421 944.225 442.535C956.991 418.197 952.45 389.379 943.325 364.634C932.894 336.373 916.401 310.428 898.515 286.369C885.064 268.272 870.455 250.968 854.926 234.607C852.548 232.099 850.171 229.611 847.708 227.21L841.881 230.469C847.943 234.286 853.812 238.446 859.596 242.67C873.797 252.984 887.441 264.069 900.443 275.884C916.979 290.915 932.508 307.19 946.003 325.051C959.497 342.913 971.557 363.412 978.047 385.433C984.473 407.197 984.944 430.205 977.683 451.819C971.535 470.109 959.647 485.441 945.018 497.77C930.388 510.1 911.881 520.306 893.332 527.446C874.782 534.587 856.425 538.94 837.255 540.312C822.282 541.384 805.832 540.719 792.059 534.244C780.835 528.969 772.888 519.47 772.16 506.755C771.732 499.1 773.702 491.295 776.465 484.197C779.229 477.1 782.87 470.152 786.019 463.141C789.681 454.971 793.194 446.759 796.472 438.439C804.868 417.147 813.286 394.225 814.186 371.088C814.593 360.86 813.372 348.917 805.596 341.391C800.284 336.266 793.066 334.186 785.847 333.714C780.407 333.35 775.052 333.757 769.911 335.73C762.564 338.539 756.588 344.092 751.876 350.246C738.938 367.079 732.041 388.371 725.401 408.27C717.497 431.985 710.728 456.108 701.689 479.437C697.619 489.965 693.078 500.386 687.381 510.121C680.269 522.3 670.673 533 660.477 542.671C640.707 561.411 615.753 575.799 588.057 577.021C566.852 577.965 545.689 570.503 529.388 556.951C514.245 544.365 503.192 526.524 500.215 506.926C498.758 497.341 499.401 487.521 502.143 478.215C506.384 463.934 512.745 450.147 520.007 437.174C532.473 414.895 548.388 394.975 565.502 376.149C571.5 369.544 577.711 363.112 583.559 356.357C587.029 352.348 591.249 347.866 592.791 342.656C596.604 329.79 569.893 333.328 564.538 334.743C542.54 340.64 528.232 361.697 516.751 379.88C499.915 406.576 485.521 434.687 467.592 460.696C458.596 473.733 449.043 486.899 437.626 497.942C429.765 505.554 420.79 512.094 411.173 517.347C391.724 527.918 369.597 533.836 347.428 533.901C325.258 533.965 303.089 528.304 284.453 516.082C263.89 502.573 249.496 481.838 241.764 458.659C235.038 438.525 233.174 416.418 241.207 396.369C248.233 378.851 261.427 364.763 276.378 353.613C292.314 341.712 310.2 332.642 328.321 324.58C345.029 317.161 362.164 310.749 378.979 303.566C385.576 300.757 392.131 297.777 398.364 294.239C409.438 287.956 420.083 279.636 429.015 270.566C432.357 267.178 435.784 263.383 437.819 259.03C438.954 256.586 439.918 253.391 438.247 250.946C436.577 248.502 433.235 247.923 430.493 247.902C425.738 247.837 421.026 249.124 416.571 250.689C410.016 252.984 403.783 256.05 397.743 259.416C389.303 264.134 381.485 269.859 373.003 274.49C359.037 282.102 343.786 287.42 327.978 289.371C318.618 290.529 309.129 290.551 299.79 289.114C299.147 289.007 298.205 288.857 296.984 288.578C296.513 288.471 296.02 288.364 295.549 288.235C291.072 287.034 286.638 285.04 283.018 282.102C265.968 268.315 278.991 242.798 288.309 228.561C294.971 218.397 302.917 209.069 311.571 200.557C319.346 192.923 327.764 185.804 337.125 180.165C338.303 179.457 338.881 177.914 337.596 177.034C336.204 176.07 333.997 176.777 332.734 177.549L332.819 177.613Z" fill="white"/>
<path d="M349.208 172.617C352.935 164.019 356.619 155.378 360.282 146.736C367.394 129.968 374.419 113.158 381.124 96.2396C383.973 89.0349 386.8 81.7874 389.37 74.4755C390.784 70.4443 392.648 66.113 393.076 61.8245C393.097 61.5243 393.14 61.2027 393.14 60.9025C393.14 60.5594 393.483 58.7153 393.376 58.5438C393.333 58.458 389.477 59.7446 389.499 59.7875C389.542 59.8732 389.82 59.9376 389.884 60.0233C390.099 60.3021 390.548 60.5165 390.805 60.7524C391.619 61.5028 392.326 62.382 392.947 63.2826C394.768 65.9414 396.267 69.2221 395.432 72.4599C393.804 78.8712 391.341 85.1109 389.113 91.3292C383.951 105.803 378.318 120.105 373.156 134.579C373.048 134.879 372.92 135.2 372.813 135.501C372.17 137.195 377.247 135.694 377.697 135.501C380.395 134.321 382.966 132.692 385.279 130.891C387.057 129.497 388.706 127.953 390.056 126.13C390.677 125.294 391.384 124.308 391.791 123.343L392.262 122.678C388.813 122.056 387.485 122.378 388.278 123.664C388.256 124.007 388.642 124.779 388.706 125.165C389.991 134.236 380.952 138.889 374.484 142.791C372.599 143.928 370.628 144.935 368.743 146.072C366.858 147.208 366.216 150.06 365.337 152.054L361.546 160.781C361.417 161.06 361.032 161.618 361.053 161.918C361.075 162.561 360.668 161.832 361.525 161.575C360.818 161.789 360.047 162.518 359.425 162.904C354.178 166.249 348.951 169.594 343.703 172.939C342.59 173.647 343.061 174.247 344.11 174.462C345.46 174.74 347.366 174.011 348.501 173.282C354.263 169.594 360.454 166.228 365.958 162.132C367.908 160.674 368.572 157.672 369.514 155.506L373.648 146.029L372.384 147.058C376.09 145.064 379.753 142.898 383.287 140.604C388.064 137.495 393.097 134.343 394.511 128.468C394.961 126.581 395.839 122.507 393.826 121.134C391.491 119.569 387.421 121.842 386.029 123.772C383.823 126.859 382.13 129.432 378.939 131.662C377.397 132.735 375.79 133.699 374.077 134.45H378.96C383.973 121.199 388.899 107.904 393.719 94.5671C396.31 87.3624 399.009 80.1792 401.173 72.8244C401.965 70.1227 402.179 67.8712 401.065 65.1266C399.78 61.9531 396.974 57.0857 393.076 56.9785C391.148 56.9142 388.171 57.6432 387.228 59.5301C386.714 60.5594 386.971 61.996 386.907 62.9824C386.779 64.5691 386.157 66.456 385.665 68.0642C383.737 74.497 381.316 80.7796 378.917 87.0408C372.149 104.731 364.866 122.228 357.519 139.682C354.435 146.994 351.329 154.306 348.202 161.596C347.152 164.062 346.081 166.528 345.031 168.994C344.474 170.302 343.618 171.717 343.254 173.089C343.211 173.261 343.104 173.432 343.039 173.604C342.525 174.805 348.459 174.247 349.187 172.575L349.208 172.617Z" fill="white"/>
<path d="M413.402 153.705C419.914 147.251 426.404 140.754 432.851 134.235C445.425 121.563 457.934 108.805 470.186 95.832C475.434 90.2784 480.66 84.682 485.715 78.914C488.65 75.5475 492.141 72.0309 494.241 68.0212C494.498 67.528 495.483 65.7269 495.376 65.5339C495.14 65.0836 492.57 66.4774 492.57 66.1772C492.57 66.2415 492.741 66.2629 492.763 66.3273C492.827 66.606 493.319 67.0349 493.491 67.3136C494.048 68.1927 494.412 69.2005 494.69 70.2083C495.269 72.2668 495.461 74.3253 494.819 76.3623C494.755 76.5767 494.605 76.7697 494.498 76.9627C494.305 77.3272 494.819 76.491 494.54 76.8984C494.305 77.2629 494.026 77.606 493.769 77.949C489.657 83.374 485.03 88.4558 480.532 93.5591C470.679 104.795 460.44 115.688 450.63 126.945C450.437 127.181 450.223 127.395 450.009 127.61C448.338 129.432 450.587 130.805 452.322 130.74C457.591 130.547 463.225 129.132 467.723 126.409C468.451 125.98 469.137 125.508 469.801 124.994C470.058 124.779 470.786 124.415 470.893 124.136L471.15 123.964L468.387 123.536C468.387 123.536 468.215 124.694 468.194 124.822C467.98 125.573 467.594 126.302 467.209 126.988C465.859 129.325 464.403 130.676 462.068 131.512C457.099 133.27 451.679 134.021 446.474 134.75C445.125 134.943 443.326 134.943 442.062 135.543C440.798 136.144 439.663 137.623 438.656 138.631C435.486 141.783 432.316 144.957 429.146 148.109L431.181 146.908C424.219 148.173 417.258 149.46 410.275 150.725C409.054 150.939 407.362 152.226 407.726 153.641C408.133 155.185 410.189 155.12 411.389 154.906C418.179 153.662 425.162 152.762 431.866 151.153C434.522 150.51 436.643 147.551 438.506 145.707C441.012 143.22 443.518 140.711 446.025 138.224L443.154 139.575C447.481 139.06 451.808 138.374 456.092 137.495C461.79 136.337 467.68 135.007 471.428 130.204C473.014 128.167 475.156 124.951 474.663 122.206C474.106 119.14 470.357 119.462 468.215 120.534C466.588 121.348 465.324 122.742 463.717 123.6C462.111 124.458 460.376 125.037 458.619 125.465C456.756 125.916 454.828 126.216 452.922 126.302L455.235 129.432C464.574 119.161 473.87 108.826 483.059 98.4266C488.157 92.6585 493.319 86.912 498.117 80.8652C499.81 78.7424 501.33 76.7697 501.545 73.9393C501.802 70.2298 500.602 64.5904 497.132 62.5105C495.119 61.3097 492.441 61.8244 490.728 63.3253C489.528 64.376 489.164 65.7483 488.5 67.1206C488.371 67.3779 488.222 67.6138 488.093 67.8497C487.665 68.5787 488.007 68.0212 487.665 68.4929C487.086 69.3292 486.465 70.144 485.823 70.9374C481.71 76.1479 477.19 81.0368 472.692 85.9256C460.097 99.5844 447.074 112.879 434.03 126.109C425.654 134.6 416.722 142.748 408.669 151.561C408.54 151.711 408.39 151.84 408.262 151.968C407.212 153.019 407.812 154.434 409.054 154.927C410.553 155.506 412.374 154.82 413.445 153.748L413.402 153.705Z" fill="white"/>
<path d="M441.204 587.378C447.159 587.764 453.649 586.306 458.811 583.347C459.711 582.832 460.353 582.446 460.91 581.61C461.467 580.774 462.131 579.938 462.817 579.166C464.766 576.914 467.55 574.212 470.763 574.577C471.513 574.663 472.948 574.405 473.291 573.591C474.34 571.017 475.626 568.359 477.553 566.343C478.432 565.421 475.54 565.828 475.197 566.043C469.671 569.409 462.988 568.466 458.79 563.47C458.254 562.848 455.984 563.513 455.791 564.263C454.934 567.823 453.735 571.339 452.3 574.706C451.164 577.364 449.879 580.002 448.123 582.318C447.009 583.797 445.252 586.049 443.175 585.877C442.489 585.813 441.504 585.963 440.99 586.456C440.583 586.842 440.519 587.292 441.225 587.357C447.759 587.914 451.785 581.846 454.292 576.678C456.262 572.583 457.826 568.209 458.897 563.791L455.898 564.585C461.189 570.867 470.378 570.76 477.061 566.708L474.705 566.407C472.691 568.509 471.299 571.339 470.228 574.041L472.755 573.055C466.694 572.368 461.531 576.785 458.254 581.439C456.562 583.861 452.385 584.784 449.622 585.32C448.123 585.62 446.58 585.791 445.06 585.856C444.588 585.856 444.096 585.877 443.624 585.856C443.582 585.856 443.046 585.856 443.239 585.856C443.41 585.856 443.239 585.856 443.196 585.856C442.511 585.813 441.525 585.941 441.011 586.435C440.626 586.821 440.54 587.292 441.247 587.335L441.204 587.378Z" fill="white"/>
<path d="M513.431 577.965C508.654 577.343 498.951 575.07 499.487 568.638C499.594 567.265 497.173 567.973 496.659 568.487C491.304 573.784 484.707 564.306 482.479 560.168C481.922 559.139 479.973 559.632 479.459 560.489C473.74 570.246 466.05 580.602 456.197 586.392C455.062 587.057 455.919 588.086 456.99 587.893C460.61 587.25 464.23 586.392 467.7 585.213C470.034 584.441 472.412 583.561 474.447 582.168C475.175 581.675 475.882 581.117 476.439 580.431C476.653 580.152 476.932 579.83 477.039 579.487C477.296 578.758 477.06 579.123 476.824 579.337C480.359 576.55 487.342 574.92 491.133 577.729C492.482 578.737 492.761 579.938 494.517 580.367C496.274 580.795 498.18 580.753 499.979 580.731C504.22 580.688 508.44 580.302 512.66 579.873C514.245 579.702 515.166 577.729 513.024 577.965C507.776 578.501 501.714 579.595 496.466 578.565C495.952 578.458 495.503 578.201 495.76 578.437C495.802 578.458 495.995 578.651 495.695 578.244C494.839 577.129 493.81 576.164 492.547 575.499C487.941 573.119 482.179 574.684 477.746 576.721C476.717 577.193 475.154 577.729 474.404 578.63C473.911 579.23 473.847 579.959 473.183 580.56C472.305 581.353 471.17 581.889 470.099 582.361C466.157 584.119 461.381 585.277 457.354 585.984L458.146 587.485C468.385 581.46 476.418 570.782 482.372 560.661L479.352 560.983C482.008 565.914 485.949 571.918 492.247 571.875C494.71 571.875 497.387 570.868 499.144 569.131L496.316 568.981C495.695 576.593 506.427 579.166 512.231 579.916C513.559 580.088 515.466 578.244 513.388 577.986L513.431 577.965Z" fill="white"/>
<path d="M504.522 539.111C499.145 547.259 493.748 555.408 488.371 563.577C487.6 564.756 486.808 565.936 486.037 567.115C485.608 567.758 486.401 568.123 486.915 568.166C487.643 568.23 488.543 567.909 488.95 567.287C494.326 559.139 499.724 550.99 505.1 542.821C505.871 541.642 506.664 540.462 507.435 539.283C507.863 538.64 507.071 538.275 506.557 538.232C505.828 538.168 504.929 538.49 504.522 539.111Z" fill="white"/>
<path d="M495.523 569.838C500.429 562.247 505.312 554.657 510.217 547.066C510.924 545.994 511.61 544.901 512.317 543.828C512.745 543.185 511.952 542.713 511.395 542.649C510.624 542.563 509.789 542.928 509.361 543.571C504.455 551.162 499.572 558.752 494.667 566.343C493.96 567.415 493.274 568.509 492.567 569.581C492.139 570.224 492.932 570.696 493.489 570.76C494.26 570.846 495.095 570.481 495.523 569.838Z" fill="white"/>
<path d="M745.707 553.756C743.843 554.829 741.744 555.6 739.688 556.179C736.882 556.951 732.533 558.088 729.877 556.651C724.887 553.949 718.354 552.255 713.213 555.515L715.59 555.279C713.384 553.349 710.9 551.462 708.115 550.476L705.887 551.912C713.834 552.556 722.359 548.589 724.394 540.419L721.395 541.213C724.351 544.708 727.735 547.988 731.377 550.754C735.853 554.164 742.044 557.702 747.549 554.421C749.327 553.37 746.563 553.22 745.685 553.735C743.757 554.871 741.187 553.735 739.366 552.856C736.689 551.548 734.29 549.704 732.041 547.774C729.278 545.415 726.643 542.821 724.308 540.055C723.773 539.433 721.502 540.098 721.31 540.848C720.26 545.072 717.561 548.396 713.341 549.704C712.078 550.09 710.75 550.304 709.443 550.369C709.015 550.39 708.586 550.39 708.158 550.39C707.729 550.39 708.201 550.39 707.836 550.39C707.344 550.347 704.324 551.355 705.609 551.827C708.243 552.77 710.6 554.593 712.677 556.415C713.213 556.887 714.562 556.501 715.055 556.179C717.968 554.335 721.759 555.493 724.715 556.715C725.679 557.123 726.6 557.573 727.521 558.066C728.507 558.581 729.513 558.602 730.627 558.624C736.346 558.817 742.579 557.273 747.57 554.4C749.369 553.37 746.585 553.22 745.707 553.714V553.756Z" fill="white"/>
<path d="M680.119 579.401C685.024 576.142 693.549 569.045 689.608 562.462L687.252 564.006C689.565 564.756 692.35 564.392 694.513 563.362C700.211 560.661 701.282 553.542 701.496 547.945L698.711 548.91C708.65 555.364 720.667 561.24 732.619 562.054L732.962 560.21C729.063 561.368 725.015 562.269 720.967 562.655C718.482 562.891 716.383 562.891 714.262 561.647C713.277 561.068 712.313 561.111 711.135 561.132C706.594 561.132 701.56 561.926 697.919 564.842C695.82 566.536 695.07 568.444 694.492 570.889C694.492 570.824 694.492 570.696 694.428 570.739C693.228 571.253 692.007 572.39 690.786 573.011C686.824 574.984 682.668 576.571 678.513 578.136C676.499 578.887 678.32 580.173 679.798 579.616C685.11 577.622 691.172 575.735 695.841 572.347C697.148 571.382 697.426 570.503 697.769 569.388C699.311 564.091 705.716 563.041 710.471 563.105C710.964 563.105 711.542 563.062 712.035 563.169C712.356 563.234 711.242 562.676 711.735 563.277C711.992 563.577 712.42 563.791 712.763 563.963C714.712 564.928 717.175 564.842 719.274 564.713C724.051 564.456 728.87 563.362 733.433 562.011C734.461 561.711 735.489 560.275 733.776 560.167C722.295 559.396 710.707 553.542 701.153 547.345C700.489 546.916 698.412 547.302 698.369 548.31C698.197 553.199 696.548 564.627 689.115 562.204C688.344 561.947 686.074 562.612 686.759 563.748C690.101 569.302 682.24 575.627 678.17 578.329C676.414 579.487 679.048 580.152 680.141 579.423L680.119 579.401Z" fill="white"/>
<path d="M666.454 540.998C675.001 545.908 683.526 550.797 692.072 555.708C693.272 556.394 694.471 557.08 695.692 557.788C696.677 558.345 699.505 556.973 698.134 556.179C689.587 551.269 681.062 546.38 672.516 541.47C671.316 540.784 670.117 540.098 668.896 539.39C667.911 538.832 665.083 540.205 666.454 540.998Z" fill="white"/>
<path d="M693.528 561.626C685.71 557.016 677.87 552.405 670.052 547.795C668.938 547.152 667.846 546.487 666.732 545.844C666.154 545.501 665.297 545.715 664.718 545.951C664.547 546.016 663.283 546.637 663.819 546.959C671.637 551.569 679.477 556.179 687.295 560.789C688.409 561.433 689.501 562.097 690.615 562.741C691.193 563.084 692.05 562.869 692.628 562.633C692.8 562.569 694.064 561.947 693.528 561.626Z" fill="white"/>
<path d="M358.029 232.978C361.877 232.479 364.509 228.304 363.907 223.654C363.306 219.003 359.698 215.637 355.85 216.136C352.002 216.635 349.371 220.81 349.972 225.46C350.574 230.111 354.181 233.477 358.029 232.978Z" fill="white"/>
<path d="M863.216 250.196C855.697 249.296 848.115 246.894 841.325 243.613C828.751 237.567 818.684 227.103 817.87 212.543C817.185 200.257 822.411 188.292 828.387 177.871C828.88 176.992 826.502 177.249 826.31 177.292C825.046 177.442 823.525 177.849 822.54 178.707C820.805 180.187 819.991 182.631 820.098 184.861C820.462 192.194 828.773 197.812 834.171 201.35C835.134 201.994 840.382 201.007 840.211 199.463C838.369 183.66 842.417 164.148 855.355 153.855C861.631 148.859 869.32 147.187 877.181 147.144L876.153 146.479C871.848 151.647 868.249 157.608 865.272 163.612C859.896 174.462 856.233 187.241 859.189 199.313C861.159 207.354 866.129 214.044 872.469 219.233C873.347 219.962 878.767 218.783 878.509 217.346C878.124 215.224 878.038 212.972 878.338 210.828C878.574 209.112 879.323 207.997 880.03 206.475C879.945 206.647 880.48 205.982 880.523 206.025C878.874 203.752 879.152 207.461 879.238 206.111C879.238 206.196 879.366 206.304 879.366 206.389C879.58 207.569 880.673 209.005 881.187 210.077C882.258 212.286 883.308 214.495 884.357 216.725C887.206 222.857 889.905 229.075 892.304 235.401C894.51 241.233 896.716 247.28 897.552 253.477C897.83 255.471 898.151 258.001 897.188 259.888C897.102 260.038 896.588 260.703 896.588 260.746C896.588 260.66 899.094 259.738 899.158 259.995C899.158 260.06 896.331 259.245 895.967 259.073C894.788 258.559 893.118 259.052 891.983 259.459C891.747 259.545 889.177 260.746 890.119 261.153C894.531 263.126 902.65 263.104 903.806 257.143C904.963 251.182 902.135 243.935 900.186 238.317C897.509 230.576 894.253 223.007 890.804 215.567C889.562 212.886 888.298 210.227 886.992 207.569C886.563 206.711 886.135 205.06 885.407 204.395C883.779 202.873 879.216 204.309 877.46 205.038C875.339 205.918 873.647 207.311 872.812 209.477C871.698 212.372 871.762 215.91 872.298 218.933L878.338 217.046C867.2 207.976 862.573 194.853 865.058 180.766C866.943 170.066 871.955 159.966 877.995 151.025C879.323 149.052 880.716 147.08 882.236 145.236C882.686 144.699 881.38 144.571 881.208 144.571C866.022 144.657 850.471 149.76 841.86 163.011C836.034 171.996 833.892 183.103 833.721 193.674C833.678 196.118 833.721 198.584 833.978 201.007L840.018 199.12C834.706 195.625 826.931 190.436 826.31 183.36C826.138 181.387 826.952 179.029 828.13 178.042L822.261 178.857C813.243 194.575 805.982 215.524 817.913 231.734C825.346 241.855 837.491 247.473 849.314 250.604C852.185 251.354 855.119 252.04 858.075 252.405C859.51 252.576 861.095 252.212 862.402 251.59C862.809 251.397 864.608 250.218 863.173 250.046L863.216 250.196Z" fill="white"/>
</g>
<defs>
<clipPath id="clip0_3219_504">
<rect width="834" height="531" fill="white" transform="translate(156 57)"/>
</clipPath>
</defs>
</svg>
