<?xml version="1.0" encoding="UTF-8"?>
<svg xmlns="http://www.w3.org/2000/svg" xmlns:xlink="http://www.w3.org/1999/xlink" viewBox="0 0 744 627.96">
  <defs>
    <radialGradient id="radial-gradient" cx="67.72" cy="525.89" fx="67.72" fy="525.89" r="67.65" gradientUnits="userSpaceOnUse">
      <stop offset="0" stop-color="#faff9d"/>
      <stop offset=".25" stop-color="#f7fc9b"/>
      <stop offset=".38" stop-color="#eff496"/>
      <stop offset=".49" stop-color="#e2e68e"/>
      <stop offset=".59" stop-color="#ced381"/>
      <stop offset=".68" stop-color="#b5b972"/>
      <stop offset=".76" stop-color="#979a5f"/>
      <stop offset=".83" stop-color="#727548"/>
      <stop offset=".9" stop-color="#48492d"/>
      <stop offset=".97" stop-color="#191a10"/>
      <stop offset="1" stop-color="#000"/>
    </radialGradient>
  </defs>
  <g id="Layer_1" data-name="Layer 1">
    <path d="M363.08,581.03c-19.28,8.21-41.58,8.34-61.53,2.59-20.4-5.88-37.91-17.89-52.9-32.69-17.62-17.41-33.04-39.51-40.81-63.27-19.06-58.33-4.29-125.28,27.56-176.38,3.11-4.99,6.42-9.55,10.15-14.1,13.71-16.75,28.99-32.35,46.34-45.35,24.31-18.23,53.03-30.93,83.72-31.82,30.43-.88,60.21,9.42,84.54,27.4,12.08,8.92,23.24,17.89,32.23,30.1,9.38,12.75,15.83,27.46,19.38,42.85,5.86,25.34,4.16,52.02-1.83,77.17-4.82,20.23-15.67,37.79-23.03,57.05-7.04,18.44-11.84,37.71-15.11,57.15-2.38,14.14-3.94,28.43-4.7,42.75-.41,7.79-.25,15.61-.93,23.39-1.2,13.68-3.83,29.92-13.82,40.23-6.77,6.99-15.8,8.03-24.96,6.09-36.97-7.83-60.39-46.11-68.21-80.5-7.12-31.33-1.24-63.91,13.03-92.37,9.27-18.5,23.47-33.27,33.76-51.1,11.49-19.9,20.56-47.09,4.22-67.02s-47.31-21.81-69.61-10.54c-14.14,7.15-25.06,19.83-34.02,32.65-9.41,13.46-16.59,28.73-19,45.08-2.89,19.55,1.51,39.08,11.04,56.28,5.08,9.17,12.46,16.27,20.32,23.14,9.37,8.17,20.89,17.01,33.86,17.33,1.91.05,6.24-2.76,2.37-2.85-14.19-.34-27.64-13.21-37.19-22.5-3.16-3.07-6.47-6.21-9.22-9.67-5.57-6.99-9.41-16.34-12.14-24.79-11.48-35.53,3.33-70.67,27.29-97.15,13.8-15.25,32.69-25.25,53.74-20.86,10.05,2.1,19.75,7.43,26.49,15.24,18.65,21.62,5.39,52.41-7.88,73.02-5.27,8.18-11.53,15.56-17.15,23.47-5.8,8.17-10.8,16.95-14.99,26.04-13.77,29.87-18.08,63.82-8.76,95.67,9.6,32.82,32.93,66.88,68.41,74.24,8.79,1.82,18.22,1.25,26.22-3.09,10.22-5.55,15.7-16.37,18.65-27.2s3.69-22.06,3.89-33.25c.21-11.8,1.15-23.59,2.56-35.31,2.21-18.36,5.71-36.61,10.88-54.38,2.97-10.2,6.51-20.24,10.77-29.98s9.81-19.89,13.77-30.27c9.6-25.18,12.85-54.32,9.49-81.02-4.14-32.84-20.59-62.18-47.17-82.11-23.74-17.79-50.13-30.5-80.19-32.85-27.03-2.11-53.91,4.18-77.95,16.49-30.95,15.85-58.77,41.34-79.23,69.3-10.88,14.87-19.19,32.11-25.83,49.21-12.88,33.16-18.7,69.26-14.34,104.7,3.03,24.64,10.69,46,24.25,66.73,21.45,32.8,54.14,60.69,94.13,65.66,17.23,2.14,35.53.13,51.58-6.71,3.74-1.59.27-2.93-2.16-1.9h0Z" fill="#241f20"/>
    <path d="M502.65,484.36c8.54-5.76,16-13.64,22.75-21.32,17.63-20.07,31.01-43.78,40.37-68.74,14.85-39.58,19.53-82.37,17.57-124.42-.62-13.3-1.78-26.65-3.76-39.82-.25-1.65-.6-3.13-1.07-4.73-2.06-7-4.78-13.82-7.89-20.41-11.15-23.67-28.18-44.9-50.9-58.3-34.86-20.56-78.25-19.09-115.66-6.67-24.75,8.21-47.65,21.63-67.27,38.76-20.94,18.28-36.87,41.19-59.81,57.29-20.47,14.36-44.25,24.1-69.1,27.32-11.92,1.54-24.04,1.57-35.96-.05-4.95-.67-10.12-1.28-14.81-3.1-22.74-8.81-44.55-25.81-54.22-48.65-8.06-19.05-6.64-40.74.85-59.75,9.73-24.71,29.67-43.54,52.95-55.62,12.94-6.71,27.02-10.91,41.58-11.89l-.58-2.18c-9.68,4.78-18.91,10.7-27.67,16.98-15.44,11.07-30.81,24.67-39.22,42.05-9.68,20.02-4.3,42.25,12.37,56.87,20.21,17.71,46.77,16.45,71.02,9.53,24.33-6.94,45.88-20.41,63.44-38.58,11.98-12.4,20.68-27.08,31.53-40.35,9.25-11.31,19.81-21.5,31.52-30.24,36.85-27.49,83.02-37.99,128.39-36.84,11.47.29,22.76,1.65,34.15,2.86,1.82.19-.27-.04.94.07.82.07,1.64.15,2.45.24,3.1.35,6.18.86,9.24,1.47,27.02,5.32,52.6,18.07,73.99,35.26,38.82,31.2,62.78,76.57,75.77,123.99,3.06,11.16,4.83,21.13,5.6,32.55,1.21,18,1.14,36.11-.1,54.11-3.69,53.77-17.88,108.43-49.22,152.96-9.37,13.32-20.36,25.69-31.77,37.3-18.6,18.91-39.2,36.51-62.26,49.76-12.11,6.96-24.97,12.6-38.66,15.55-3.49.75-2.8,3.27.68,2.52,27.2-5.88,51.67-21.34,73.16-38.5,16.28-13,31.47-27.54,45.28-43.15,33.06-37.37,53.23-82.37,62.63-131.19,7.01-36.39,8.94-74.37,5.19-111.27-1.81-17.85-8.17-35.67-14.6-52.3-9-23.3-21.09-45.51-36.81-64.98-21.69-26.86-50.4-48-83.08-59.42-8.97-3.13-18.23-5.6-27.63-7.03-5.09-.78-8.32-.97-12.91-1.52-34.56-4.16-69.97-3-103.56,6.72-23.96,6.93-46.64,18.18-66.15,33.78-11.1,8.88-21.13,19.09-29.92,30.26-11.03,14.03-20.24,29.02-33.23,41.47-18.14,17.39-40.16,29.21-64.72,34.46-14.25,3.05-28.38,3.1-41.85-3.16s-23.49-17-28.03-30.5c-6.73-20.03,3.88-39.3,17.3-53.71,12.06-12.94,26.84-23.44,42.13-32.22,2.66-1.53,5.35-3.04,8.11-4.4,1.65-.81,1.26-2.3-.58-2.18-48.84,3.31-98.54,38.85-107.59,88.73-3.3,18.2-.66,36.82,9.06,52.69,7.54,12.3,18.41,22.24,30.54,29.91,6.61,4.18,13.84,8.31,21.33,10.73,17.77,5.75,39.03,5.09,57.23,2.21,23.03-3.65,45.19-12.38,64.73-25.07,10.48-6.8,20.2-14.67,29.07-23.46,10.46-10.37,19.58-21.96,30.31-32.1,37.05-35.03,90.22-58.05,141.81-49.46,31.49,5.24,58.01,24.04,75.85,50.15,8.83,12.91,17.14,28.44,20.5,43.91,2.04,9.41,2.54,19.49,3.29,29.07,1.01,12.88,1.42,25.8,1.14,38.71-.48,22.24-3.07,44.49-8.24,66.14-7.32,30.71-19.92,60.35-38.59,85.9-8.9,12.19-19.19,24.02-31.34,33.12-.54.41-1.08.81-1.65,1.19-1.17.79-.39,1.42.48,1.78,1.18.5,3.15-.46,4.1-1.1h0Z" fill="#241f20"/>
    <path d="M147.61,75.95c1.83-5.22,5.54-9.98,9.25-13.97,11.18-12,26.66-18.47,42.54-21.43l-2.15-1.08c-3.98,4.22-9.3,10.22-9.29,16.33,0,.58,1.39.54,1.68.52,26.05-1.76,53.79-15.22,66.86-38.39l-5.77,1.25c2.27,32.34-13.29,68.55-46.84,77.11-.68.17-2.77.81-2.62,1.83,1.34,8.69,12.22,10.56,19.27,10.51l-.49-1.82c-4.37,2.55-9.61,3.93-14.5,4.94-14.94,3.08-30.43,1.71-45.15-1.82-1.45-.35-6.56,1.96-4.72,2.4,15.99,3.83,32.67,5.11,48.88,1.86,6.37-1.28,13.24-3.03,18.91-6.35,1.57-.92,1.37-1.83-.49-1.82-6.15.04-14.79-2.18-15.92-9.46l-2.62,1.83c17.84-4.56,32.74-15.23,41.61-31.51,6.69-12.27,9.75-26.37,10.44-40.24.15-2.99.23-6.02.02-9.02-.12-1.69-5.27.37-5.77,1.25-11.55,20.47-35.6,33.29-58.68,34.85l1.68.52c-.01-5.62,5.13-11.18,8.78-15.06,1.18-1.25-1.65-1.17-2.15-1.08-16.98,3.17-33.77,9.58-46.41,21.71-4.86,4.66-9.85,10.6-12.12,17.07-.47,1.33,5.18.67,5.74-.94h0Z" fill="#241f20"/>
    <path d="M683.71,218.31c1.88-13.85-.46-29.32-3.62-42.76-2.5-10.64-6.3-21.04-11.79-30.52-3-5.17-6.52-10.04-10.6-14.41-2.44-2.61-4.09-4.08-5.5-7.29-4.5-10.27-8.77-23.9-2.72-34.34,1.71-2.95-3.93-2.57-5.21-1.24-8.36,8.73-15.25,21.48-13.03,33.82.48,2.68,5.55,1.23,5.84-.99,4.21-32.6-9.23-68.88-39.3-84.47-1.56-.81-7.04.58-4.88,2.98,5.92,6.58,10.43,15.66,9.22,24.65l4.6-2.19c-10.56-3.59-20.94-7.79-31.14-12.28-16.87-7.43-35.03-15.78-48.55-28.63-5.07-4.82-10.4-11.41-8.53-18.85.66-2.64-3.81-1.83-4.87-1.15-13.93,8.95-20.43,26.08-15.51,41.85l3.89-2.92c-3.25-.59-7.85-2.78-10.97-5.12-8.27-6.2-10.84-15.99-10.02-25.95.24-2.94-4.19-1.88-5.37-.67-7.55,7.69-11.14,19.11-8.85,29.63l5.13-2.47c-10.72-9.11-26.61-13.65-40.31-10.12-5.6,1.44-10.84,4.2-15.37,7.76-2.5,1.97-4.82,4.2-6.94,6.56-1.45,1.61-3.08,4.86-4.4,5.95-3.95,3.26-12.44,3.86-17.2,3.97-14.95.36-26.47-8.64-33.94-20.99-1.08-1.79-5.71-.71-5.59,1.5.62,11.23,3.65,24.33,12.46,31.97l.93-3.44c-10.34,5.81-24.54,7.93-32.97-2.06-1.42-1.68-5.32-.82-5.59,1.5-.82,7.02-1.51,19.29,5.74,23.3l2.48-3.85c-13.79.35-26.96,10.34-34.55,21.12-5.57,7.91-7.56,17.2-12.46,25.34-6.19,10.29-15.19,17.37-27.22,19.05-1.72.24-6.2.69-9.1.44-6.27-.54-11.57-3.22-13.03-9.75-.6-2.68-5.5-1.22-5.84.99-.8,5.2.34,10.99,2.76,15.6,5.87,11.21,19.1,13.8,30.7,13.76,3.34-.01,4.43-4.34.49-4.32-10.46.04-22.12-2.74-26.48-13.33-1.53-3.72-2.21-8.13-1.59-12.13l-5.84.99c4.59,20.57,37.56,12.51,48.64,3.56,6.1-4.92,11.56-11.73,14.61-19.02s5.11-13.69,9.56-19.91c3.39-4.73,7.53-8.92,12.4-12.13s10.75-5.79,16.44-5.94c1.49-.04,4.85-2.54,2.48-3.85-6-3.32-5-14.53-4.32-20.33l-5.59,1.5c10.26,12.17,28.13,10.14,40.86,2.98,1.33-.75,2.35-2.21.93-3.44-7.73-6.71-10.49-19.26-11.04-29.01l-5.59,1.5c6.37,10.54,15.57,18.95,27.81,21.72,8.19,1.85,16.89,1.14,24.87-1.35,2.04-.64,4.42-1.27,6.27-2.39,1.18-.72,1.61-1.28,2.55-2.5,2.73-3.59,5.6-7.03,9.07-9.95,9.09-7.64,20.49-10.04,31.85-6.62,5.92,1.78,11.85,4.75,16.59,8.77,1.59,1.35,5.64-.12,5.13-2.47-2.04-9.39,1.2-19.46,7.93-26.31l-5.37-.67c-1.36,16.53,7.91,31.87,24.88,34.93,1.46.26,4.5-.97,3.89-2.92-4.43-14.2.96-29.47,13.58-37.58l-4.87-1.15c-3.78,15.08,15.8,27.44,26.31,33.94,16.29,10.07,34.06,17.85,51.9,24.75,4.16,1.61,8.33,3.18,12.56,4.62,1.63.55,4.34-.22,4.6-2.19,1.3-9.69-3.39-19.69-9.8-26.81l-4.88,2.98c29.1,15.07,41.96,49.96,37.88,81.5l5.84-.99c-2-11.13,4.61-22.67,12.1-30.5l-5.21-1.24c-5.38,9.28-3.22,20.89.1,30.51,1.1,3.19,2.27,6.69,4.02,9.61,2.08,3.46,5.74,6.15,8.28,9.36,13.78,17.4,19.75,40.1,21.44,61.91.48,6.23.9,12.82.06,19.05-.4,2.98,5.52,2.25,5.88-.42h0Z" fill="#241f20"/>
    <path d="M517.35,287.21c4.22-4.28,6.21-10.79,6.51-16.65.96-18.58-13.61-34.62-26.36-46.23-.87-.79-6.07,1.07-5.64,1.73,4.21,6.43,5.88,15.71-1.89,20.14l4.94-.95c-6.77-6.58-12.94-13.97-18.3-21.73-6.6-9.56-15.98-24.77-8.73-36.29.52-.83-2.22-.43-2.28-.42-8.67,1.46-17.55,3.83-25.49,7.63-3.9,1.87-8.97,4.54-10.6,8.86-2.02,5.35,2.97,9.79,6.79,12.67l5.48-1.91c-6.69-2.68-13.22-6.03-19.32-9.86-6.92-4.35-19.53-12.7-15.69-22.53.4-1.01-2.83-.31-3.06-.24-9.4,2.85-16.67,9.98-10.81,19.92l5.64-1.73c-10.8-4.25-23.35-6.42-34.87-4.66-6.72,1.03-13.25,3.38-18.38,7.94-5.76,5.13-11.99,7.4-19.8,7.85-.53.03-4.99,1.41-4.02,2.02,7.6,4.79,16.71,6.13,25.36,4,3.36-.82,2.99-2.4-.42-1.56-6.44,1.58-13.98-.9-19.47-4.36l-4.02,2.02c7.54-.44,15.16-2.2,21.72-6.05,4.05-2.38,6.96-6.19,11.27-8.15,10.91-4.96,26.39-1.39,37.15,2.85.72.28,6.24-.7,5.64-1.73-2.5-4.24-3.61-8.98-.1-13.02,1.13-1.3,2.57-2.34,4.1-3.12.35-.18,2.81-1.09,1.44-.67l-3.06-.24c-3.76,9.63,7.33,17.73,14.21,22.27s13.72,8.02,21.02,10.95c1.07.43,6.36-1.25,5.48-1.91-3.46-2.6-8.18-6.67-6.65-11.59,1.28-4.1,6.07-6.5,9.68-8.11,6.19-2.77,12.99-4.51,19.67-5.63l-2.28-.42c-7.39,11.73,1.89,27.01,8.63,36.76,5.45,7.89,11.74,15.4,18.62,22.09.91.89,4.09-.47,4.94-.95,8.53-4.86,8.26-14.11,3.29-21.7l-5.64,1.73c12.49,11.38,26.57,26.98,26.07,45.14-.16,5.59-2.32,12.69-5.96,16.38-1.06,1.08,4.27.41,5.22-.55h0Z" fill="#241f20"/>
    <path d="M366.35,452.12c-2.83-5.56-5.35-11.32-7.46-17.19-1.44-3.98-2.85-8.17-3.28-12.4-.49-4.86,1.76-7.44,5.86-9.95,3.77-2.31,8.2-2.98,11.96-5.03,1.78-.97-1.13.61-1.22-.12.02.12,1.82.59,1.98.64,2.72.99,4.99,2.1,6.61,4.56,1.32,2.01,2.24,4.37,3.15,6.58.23.57.46,1.78.87,2.22.15.16,1.05-1.41.38-.84-2.13,1.81-3.95,4.24-5.81,6.33-6.83,7.67-14.83,16.13-18.67,25.8-1.12,2.82,4.66,2.35,5.46.34,4.73-11.92,15.24-22.35,24.01-31.49.3-.32.71-.92.53-1.41-2.8-7.54-6.27-14.97-15.21-16.24-2.75-.39-5.85,1.14-8.36,2.08-4.67,1.74-9.43,3.93-13.2,7.24-6.74,5.9-3.96,14.27-1.39,21.73,2.2,6.39,4.93,12.66,8,18.69,1.11,2.19,6.79.39,5.8-1.55Z" fill="#241f20"/>
    <g>
      <path d="M343.22,292.66s18.68,95.65,30.08,110.78l-18.37,12.2s-30.26-41.48-21.47-57.59c0,0,5.86,10.25,12.2,17.57,0,0-12.2-58.07-11.22-67.84.98-9.76,8.78-15.13,8.78-15.13Z" fill="#dcdcdb"/>
      <path d="M340.32,293.43c5.98,30.61,12.38,61.54,21.87,91.27,2.12,6.65,4.22,14.08,8.4,19.8l.43-1.36c-6.12,4.07-12.25,8.13-18.37,12.2l4.98-.77c-5.16-7.1-9.78-14.69-13.84-22.46-4.82-9.24-12.75-24-7.46-34.49l-5.78,1.21c3.61,6.27,7.72,12.34,12.39,17.86.94,1.11,5.96-.15,5.61-1.84-2.7-12.86-5.22-25.76-7.51-38.69s-9.04-33.64,4.45-43.2c2.52-1.79-3.27-1.5-4.55-.59-14.06,9.96-8.67,28.12-6.24,42.21s5.14,27.93,8.06,41.82l5.61-1.84c-4.53-5.35-8.52-11.2-12.01-17.28-.98-1.71-5.08-.17-5.78,1.21-5.43,10.76,2.48,25.71,7.42,35.18,4.16,7.98,8.92,15.76,14.22,23.04.92,1.26,4.1-.18,4.98-.77,6.12-4.07,12.25-8.13,18.37-12.2.5-.33.81-.84.43-1.36-3.6-4.93-5.46-11.41-7.35-17.12-2.96-8.98-5.42-18.12-7.77-27.28-4.57-17.88-8.57-35.9-12.32-53.96-.84-4.04-1.67-8.08-2.46-12.12-.32-1.63-6.15-.25-5.8,1.55Z" fill="#241f20"/>
    </g>
    <path d="M642.58,428.27c.65,5.99,1.71,11.98,3.06,17.85,1.74,7.56,3.89,17.6,9.94,23.05,4.62,4.16,10.31.11,15.19-1.83,6.29-2.51,12.58-5.02,18.87-7.53l-4.08-.97c-1.84,6.87-1.31,14.97,1.13,21.59,5.98,16.21,22.98,22.2,38.82,24.03l2.2-3.48h-49.33l1.8.97c-2.44-6.81-4.88-13.62-7.32-20.42-.69-1.93-4.22-.73-5.24.22-7.3,6.81-14.6,13.62-21.9,20.42l3.45-1.19h-39.29l-1.47,3.46c12.63-1.59,29.15-5.8,37.13-16.5,1.64-2.2,3.71-5.86,3.22-8.72s-2.5-6.03-3.72-8.62c-2.47-5.22-6.12-15.14-13.4-13.65l3.13,1.68c4.48-10.34,8.95-20.67,13.43-31.01,1.16-2.68-4.62-2.11-5.43-.24-4.48,10.34-8.95,20.67-13.43,31.01-.87,2,1.91,1.93,3.13,1.68-1.67.34.22,1.14,1.14,2.29,1.01,1.26,1.86,2.66,2.67,4.05,1.76,3.04,3.24,6.25,4.64,9.46.62,1.41,1.95,3.46,2.08,5.03.26,3.06-2.59,6.73-4.62,8.69-7.36,7.12-19.32,10.16-29.26,11.41-1.98.25-5.2,3.46-1.47,3.46,12.84,0,25.81.55,38.64,0,4.8-.2,8.16-4.97,11.47-8.05l14.54-13.56-5.24.22c2.44,6.81,4.88,13.62,7.32,20.42.25.71,1.11.97,1.8.97h49.33c2.2,0,6.22-3.02,2.2-3.48-15.24-1.76-31.16-8.16-35.88-24.09-1.75-5.9-2.07-12.72-.46-18.71.54-2-3.31-1.28-4.08-.97-9.25,3.69-18.51,7.39-27.76,11.08l3.47-.16c-7.46-3.39-9.79-15.99-11.44-23.05-1.41-6.04-2.5-12.19-3.18-18.35-.23-2.07-6.05-.77-5.8,1.55Z" fill="#241f20"/>
    <path d="M693.83,478.44c2.76-3.65,5.52-7.31,8.28-10.96l-5.56.86c6.53,16.66,26.7,25.38,42.79,28.63l3.66-2.73c-13.15-.52-26.3-1.05-39.45-1.57-1.49-.06-6.67,2.61-3.66,2.73,13.15.52,26.3,1.05,39.45,1.57,1.24.05,6.93-2.07,3.66-2.73-15.26-3.08-34.48-11.7-40.65-27.46-.65-1.66-4.84-.08-5.56.86-2.76,3.65-5.52,7.31-8.28,10.96-1.33,1.77,4.34,1.11,5.32-.18h0Z" fill="#241f20"/>
    <g>
      <path d="M504.96,422.74s35.85-36.82,33.17-98.02c0,0,10.46,30.41,7.4,40.65,0,0-7.33,41.59-18.71,50.27,0,0,19.27-20.13,18.87-10.43,0,0-9.86,20.84-19.96,26.49l-10.66,9.58-10.11-18.54Z" fill="#dcdcdb"/>
      <path d="M507.64,422.72c7.34-7.58,13.03-17.13,17.8-26.44,11.44-22.35,16.55-47.28,15.59-72.33l-5.8,1.55c4.4,12.84,9.88,28.22,7.12,41.83-1.57,7.74-3.31,15.43-5.57,22.99-2.45,8.17-5.32,19.34-12.25,24.96l4.97.33c3.17-3.3,6.56-6.5,10.22-9.27.63-.47,2.65-2.4,3.51-2.29-1.5-.19-.16.58-.45,1.61-.6,2.15-2.27,4.44-3.35,6.35-4.29,7.53-9.07,14.08-15.98,19.33-3.77,2.86-7.14,6.42-10.66,9.58l5.19-.42c-3.37-6.18-6.74-12.36-10.11-18.54-.98-1.79-6.55.17-5.8,1.55,3.37,6.18,6.74,12.36,10.11,18.54.85,1.55,4.18.48,5.19-.42,5.13-4.61,10.91-8.83,15.78-13.65,3.93-3.88,7.1-8.48,9.95-13.18,1.7-2.8,4.45-6.36,5.26-9.57,1.71-6.74-7.63-3.32-10.38-1.6-5.14,3.22-9.64,7.67-13.83,12.03-1.69,1.76,4.06,1.06,4.97.33,6.77-5.49,9.88-15.3,12.44-23.27,2.71-8.43,4.81-17.09,6.49-25.79,2.75-14.24-2.42-29.55-7.02-42.99-.63-1.83-5.87-.3-5.8,1.55.94,24.79-4.25,49.48-15.57,71.59-4.63,9.05-10.25,18.32-17.38,25.68-1.54,1.59,4.16,1.18,5.35-.05Z" fill="#241f20"/>
    </g>
    <path d="M488.24,467.09c2.06-5.57,5.84-10.72,8.66-15.92,4.52-8.34,8.69-16.93,11.38-26.05l-5.59,1.5c3.62,3.92,6.69,8.86,8.18,14,.71,2.45,1.74,7.89.32,9.92-.66.95-2.92,1.75-3.89,2.34-8.06,4.84-16.11,9.69-24.17,14.53-2.48,1.49,3.31,1.04,4.48.34,8.7-5.23,17.39-10.46,26.09-15.69,9.66-5.81-.07-21.51-5.57-27.47-.93-1.01-5.22.24-5.59,1.5-2.7,9.12-6.86,17.71-11.38,26.05-2.82,5.2-6.59,10.36-8.66,15.92-.46,1.24,5.15.62,5.73-.96Z" fill="#241f20"/>
    <path d="M381.41,544.18c.17-10.72,11.74-9.76,12.78,7.25s-13.05,9.96-12.78-7.25Z" fill="none" stroke="#241f20" stroke-miterlimit="10" stroke-width="3"/>
  </g>
  <g id="Layer_2" data-name="Layer 2">
    <circle cx="67.72" cy="525.89" r="67.65" fill="url(#radial-gradient)" stroke="#241f20" stroke-miterlimit="10" stroke-width=".15"/>
    <path d="M66.52,441.12c-10.35,4.59-23,7.21-34.08,4.33-1.18-.31-4.7.23-4.65,2.04.26,9-2.64,20.48-11.09,25.06-2.88,1.56-1.26,4.01,1.65,3.09,10.01-3.16,19.65-9.65,25.09-18.73l-3.8,1.66c6.08.43,12.5-.45,18.28-2.3,2.6-.83,5.1-1.55,6.87-3.65,2.4-2.86,4.3-6.46,5.66-9.92,1.12-2.84-4.66-2.38-5.46-.35-1.05,2.66-2.42,5.12-3.99,7.51-1.95,2.96-2.02,2.54-5.64,3.55-4.33,1.21-9.07,1.79-13.57,1.47-1.33-.09-3.08.46-3.8,1.66-4.45,7.41-12.45,13.17-20.54,15.73l1.65,3.09c10.21-5.53,14.84-17.2,14.51-28.49l-4.65,2.04c13.02,3.38,27.81.41,39.95-4.98,3.66-1.62.36-4.05-2.41-2.82Z" fill="#241f20"/>
    <g>
      <path d="M70.58,432.48c-1.33,9.05-6.03,23.34-16.32,25.28-2.73.51-4.88,3.7-.75,3.38,9.51-.73,22.91-1.24,30.55-7.62l-4.1,1.1c10.82,1.64,22.17,4.21,31.99,9.1,4.56,2.27,9.65,5.35,9.95,10.87.48,8.58,1.48,16.59,6.43,23.91,1.15,1.7,5.66.03,5.58-1.93-.39-9.36-.41-23.4,6.2-30.75.49-.55.97-1.61-.05-1.98-9.64-3.55-19.17-7.46-28.56-11.64-7.25-3.22-14.44-6.62-21.35-10.53-4.94-2.8-10.68-5.9-13.99-10.67-1.17-1.68-6.78.28-5.37,2.31,3.2,4.61,8.74,7.75,13.48,10.51,6.97,4.06,14.28,7.53,21.64,10.82,9.71,4.35,19.57,8.41,29.56,12.08l-.05-1.98c-7.57,8.4-7.77,22.65-7.32,33.38l5.58-1.93c-3.35-4.96-4.99-10.73-5.66-16.64-.31-2.71.13-5.68-.48-8.32-1.43-6.22-9.29-9.8-14.54-11.99-7.27-3.03-14.97-5.04-22.67-6.63-2.08-.43-4.21-.95-6.32-1.17-2.52-.27-3.73.64-5.86,1.79-6.76,3.63-16.35,3.96-23.91,4.55l-.75,3.38c13.87-2.61,20.97-16.35,22.88-29.33.35-2.38-5.5-1.4-5.81.68Z" fill="#241f20"/>
      <path d="M137.6,461.71c9.61-8.61,19.22-17.21,28.83-25.82l20.95-18.76c3.78-3.39,8.72-6.69,11.9-10.66,1.35-1.68,1.01-3.16,1.01-5.41v-12.22c0-1.73-4.6-.17-5.19.41-20.86,20.32-41.72,40.64-62.57,60.96-2.95,2.87-5.9,5.75-8.85,8.62-2.34,2.28,3.34,1.95,4.59.74,20.86-20.32,41.72-40.64,62.57-60.96,2.95-2.87,5.9-5.75,8.85-8.62l-5.19.41v9.98c0,1.4-.5,3.96,0,5.27s.65-.32.32-.02c-3.66,3.37-7.42,6.65-11.13,9.97-13.38,11.98-26.75,23.96-40.13,35.94-3.52,3.15-7.03,6.3-10.55,9.44-2.41,2.16,3.3,1.89,4.59.74h0Z" fill="#241f20"/>
      <path d="M137.49,462.72l.67-1.91c.33-.95-1.92-.57-2.3-.5-.75.15-1.52.35-2.21.68-.37.18-1.05.44-1.2.86l-.67,1.91c-.33.95,1.92.57,2.3.5.75-.15,1.52-.35,2.21-.68.37-.18,1.05-.44,1.2-.86h0Z" fill="#241f20"/>
    </g>
    <g>
      <path d="M131.54,562.86c.34-.21.69-.42,1.04-.63.28-.16.52-.37.7-.63.19-.19.32-.41.37-.68v-.45c-.07-.24-.21-.42-.42-.54-.39-.3-.9-.43-1.39-.44-.76-.02-1.59.1-2.28.44-.8.39-1.54.79-2.21,1.38-.34.3-.68.86-.55,1.35s.7.79,1.15.89c.71.16,1.48.12,2.17-.09s1.37-.52,1.92-1.01c.06-.05.11-.1.17-.14l-.52.4c.14-.1.28-.19.42-.27l-.65.34c.15-.08.29-.15.44-.22l-3.01-2.29c-.35.2-.69.42-1.04.63-.43.26-.98.77-1.08,1.3-.09.48.19.93.62,1.14.58.29,1.29.35,1.93.26.78-.11,1.52-.35,2.19-.76Z" fill="#241f20"/>
      <path d="M261.08,563.76c-2.85-2.04-5.69-4.08-8.54-6.12-1.3-.93-4.29.3-5.36,1.2-4.56,3.82-10.96,7.5-16.55,10.51-16.67,8.96-34.67,15.36-52.98,20.05-16.13,4.13-32.57,6.84-49.13,8.54l1.65.42c-.7-5.04-1.11-10.13-1.3-15.21-.22-6.17-1.26-16.58,3.47-21.45,1.47-1.51-4.23-.3-4.85.09-10.72,6.67-19.09,15.83-20.93,28.71-.18,1.23-.26,2.45-.14,3.69.14,1.4,1.11-.26.46.72-.7,1.06-3.59,1.95-4.63,2.4-8.56,3.7-17.95,4.36-27.14,3.4-.62-.06-5.84,1.31-4.6,2.2,14.84,10.72,34.26,10.81,50.37,2.97l-4.31-.21-.05.04c-.75.6.21,1.01.76,1.01,34.45-.34,70.25-7.95,102.2-20.52,14.41-5.67,28.26-12.67,41.1-21.33,2.39-1.61-3.37-.95-4.45-.22-36.58,24.66-81.64,36.06-125.28,39.16-2.47.18-4.95.32-7.42.42-.51.02-1.64-.17-2.09.07-.55.29-.06,0-.31,0l.76,1.01.05-.04c1.54-1.22-3.75-.48-4.31-.21-13.56,6.6-29.41,4.64-41.56-4.14l-4.6,2.2c13.26,1.37,29.17-.42,40.44-8.32.22-.15.77-.52.67-.89-1.38-5.43,1.6-12.33,4.05-17.15,3.23-6.35,9.48-11.08,15.41-14.77l-4.85.09c-4.74,4.87-4.18,14.23-4.06,20.47.11,5.79.56,11.61,1.36,17.34.08.54,1.35.45,1.65.42,41.22-4.23,85.08-14.15,120.17-37.37,2.13-1.41,4.28-2.87,6.24-4.51l-5.36,1.2c2.85,2.04,5.69,4.08,8.54,6.12,1.32.95,6.33-1.36,5.46-1.99Z" fill="#241f20"/>
      <path d="M131.99,562.78c.28-.14.56-.3.82-.48.07-.05.14-.09.21-.13l-.64.37s.08-.04.13-.06l-.75.27h.03c-.57-1.12-1.14-2.23-1.72-3.34-.4.22-.8.45-1.19.68-.28.18-.51.4-.69.68-.19.21-.31.46-.35.75-.06.27,0,.52.14.73.1.25.27.45.52.58l.55.24c.46.13.93.17,1.4.12l.79-.14c.5-.13.97-.34,1.4-.64.1-.06.19-.11.29-.17l-.64.37c.09-.05.17-.1.26-.15.34-.14.64-.33.9-.59.26-.19.46-.42.61-.7l.18-.51c.06-.27,0-.52-.14-.73-.05-.17-.16-.31-.32-.4-.21-.21-.46-.35-.75-.42l-.66-.12c-.52-.04-1.03,0-1.53.15-.26.08-.54.18-.79.28-.03.01-.05.02-.08.03-.26.13-.51.28-.75.43-.09.06-.18.12-.27.17l.64-.37s-.04.02-.06.03c-.34.14-.64.33-.9.59-.26.19-.46.42-.61.7-.15.24-.21.49-.16.76-.02.26.06.5.24.7l.41.35c.38.22.78.34,1.21.37h.74c.54-.06,1.05-.19,1.54-.42Z" fill="#241f20"/>
    </g>
    <path d="M88.73,609.87c-3.74,3.12-9,8.29-7.86,13.63l5.58-1.93c-4.92-4.66-10.22-8.97-15.7-12.96-7-5.09-15.9-11.5-25.02-11.14l.7,2.62c5.76-3.57,13.25-4.37,19.83-3.55,3.64.46,15.58,1.48,15.66,6.45.03,1.91,5.84.76,5.8-1.55-.11-6.43-14.28-7.69-18.79-8.25-8.74-1.08-18.52.35-26.12,5.07-1.53.95-1.28,2.7.7,2.62,8.68-.34,17.77,6.91,24.31,11.85,4.6,3.48,9.07,7.18,13.26,11.15,1.24,1.17,6.06.29,5.58-1.93-.91-4.28,3.74-8.53,6.74-11.03,2.57-2.14-3.16-2.31-4.67-1.05h0Z" fill="#241f20"/>
  </g>
</svg>